solid cube_minus_sphere
  facet normal -1.000000 -0.000000 0.000000
    outer loop
      vertex -1.000000 0.998185 1.000000
      vertex -1.000000 1.000000 1.000000
      vertex -1.000000 1.000000 0.997284
    endloop
  endfacet
  facet normal -1.000000 -0.000000 -0.000000
    outer loop
      vertex -1.000000 -1.000000 0.997284
      vertex -1.000000 -1.000000 1.000000
      vertex -1.000000 -0.998185 1.000000
    endloop
  endfacet
  facet normal -1.000000 -0.000000 0.000000
    outer loop
      vertex -1.000000 0.732367 1.000000
      vertex -1.000000 0.998185 1.000000
      vertex -1.000000 1.000000 0.997284
    endloop
  endfacet
  facet normal -1.000000 -0.000000 0.000000
    outer loop
      vertex -1.000000 0.732367 1.000000
      vertex -1.000000 1.000000 0.997284
      vertex -1.000000 1.000000 0.599459
    endloop
  endfacet
  facet normal -1.000000 -0.000000 -0.000000
    outer loop
      vertex -1.000000 0.500678 1.000000
      vertex -1.000000 0.732367 1.000000
      vertex -1.000000 0.919239 0.720326
    endloop
  endfacet
  facet normal -1.000000 -0.000000 -0.000000
    outer loop
      vertex -1.000000 -1.000000 0.902175
      vertex -1.000000 -1.000000 0.997284
      vertex -1.000000 -0.998185 1.000000
    endloop
  endfacet
  facet normal -1.000000 -0.000000 -0.000000
    outer loop
      vertex -1.000000 -1.000000 0.902175
      vertex -1.000000 -0.998185 1.000000
      vertex -1.000000 -0.508202 1.000000
    endloop
  endfacet
  facet normal -1.000000 -0.000000 -0.000000
    outer loop
      vertex -1.000000 -1.000000 0.666364
      vertex -1.000000 -1.000000 0.902175
      vertex -1.000000 -0.508202 1.000000
    endloop
  endfacet
  facet normal -1.000000 -0.000000 -0.000000
    outer loop
      vertex -1.000000 -1.000000 0.666364
      vertex -1.000000 -0.508202 1.000000
      vertex -1.000000 -0.500678 1.000000
    endloop
  endfacet
  facet normal -1.000000 -0.000000 -0.000000
    outer loop
      vertex -1.000000 -1.000000 0.599459
      vertex -1.000000 -1.000000 0.666364
      vertex -1.000000 -0.919239 0.720326
    endloop
  endfacet
  facet normal -1.000000 -0.000000 0.000000
    outer loop
      vertex -1.000000 0.641995 0.905575
      vertex -1.000000 0.919239 0.720326
      vertex -1.000000 1.000000 0.599459
    endloop
  endfacet
  facet normal -1.000000 -0.000000 0.000000
    outer loop
      vertex -1.000000 0.641995 0.905575
      vertex -1.000000 1.000000 0.599459
      vertex -1.000000 1.000000 0.273564
    endloop
  endfacet
  facet normal -1.000000 -0.000000 -0.000000
    outer loop
      vertex -1.000000 0.178457 1.000000
      vertex -1.000000 0.500678 1.000000
      vertex -1.000000 0.641995 0.905575
    endloop
  endfacet
  facet normal -1.000000 -0.000000 -0.000000
    outer loop
      vertex -1.000000 0.178457 1.000000
      vertex -1.000000 0.641995 0.905575
      vertex -1.000000 0.919239 0.416137
    endloop
  endfacet
  facet normal -1.000000 -0.000000 -0.000000
    outer loop
      vertex -1.000000 -0.519783 0.987234
      vertex -1.000000 -0.500678 1.000000
      vertex -1.000000 0.178457 1.000000
    endloop
  endfacet
  facet normal -1.000000 -0.000000 -0.000000
    outer loop
      vertex -1.000000 -0.519783 0.987234
      vertex -1.000000 0.178457 1.000000
      vertex -1.000000 0.497488 0.748549
    endloop
  endfacet
  facet normal -1.000000 -0.000000 -0.000000
    outer loop
      vertex -1.000000 -0.975289 0.636441
      vertex -1.000000 -0.919239 0.720326
      vertex -1.000000 -0.519783 0.987234
    endloop
  endfacet
  facet normal -1.000000 -0.000000 -0.000000
    outer loop
      vertex -1.000000 -0.975289 0.636441
      vertex -1.000000 -0.519783 0.987234
      vertex -1.000000 0.000000 0.865276
    endloop
  endfacet
  facet normal -1.000000 -0.000000 -0.000000
    outer loop
      vertex -1.000000 -1.000000 0.352484
      vertex -1.000000 -1.000000 0.599459
      vertex -1.000000 -0.975289 0.636441
    endloop
  endfacet
  facet normal -1.000000 -0.000000 -0.000000
    outer loop
      vertex -1.000000 -1.000000 0.352484
      vertex -1.000000 -0.975289 0.636441
      vertex -1.000000 -0.497488 0.748549
    endloop
  endfacet
  facet normal -1.000000 -0.000000 -0.000000
    outer loop
      vertex -1.000000 -1.000000 0.273564
      vertex -1.000000 -1.000000 0.352484
      vertex -1.000000 -0.919239 0.416137
    endloop
  endfacet
  facet normal -1.000000 -0.000000 0.000000
    outer loop
      vertex -1.000000 0.762838 0.539408
      vertex -1.000000 0.919239 0.416137
      vertex -1.000000 1.000000 0.273564
    endloop
  endfacet
  facet normal -1.000000 -0.000000 0.000000
    outer loop
      vertex -1.000000 0.762838 0.539408
      vertex -1.000000 1.000000 0.273564
      vertex -1.000000 1.000000 -0.087188
    endloop
  endfacet
  facet normal -1.000000 -0.000000 -0.000000
    outer loop
      vertex -1.000000 0.365341 0.779555
      vertex -1.000000 0.497488 0.748549
      vertex -1.000000 0.762838 0.539408
    endloop
  endfacet
  facet normal -1.000000 -0.000000 -0.000000
    outer loop
      vertex -1.000000 0.365341 0.779555
      vertex -1.000000 0.762838 0.539408
      vertex -1.000000 0.919239 0.126188
    endloop
  endfacet
  facet normal -1.000000 -0.000000 -0.000000
    outer loop
      vertex -1.000000 -0.114214 0.838478
      vertex -1.000000 0.000000 0.865276
      vertex -1.000000 0.365341 0.779555
    endloop
  endfacet
  facet normal -1.000000 -0.000000 -0.000000
    outer loop
      vertex -1.000000 -0.114214 0.838478
      vertex -1.000000 0.365341 0.779555
      vertex -1.000000 0.497488 0.623676
    endloop
  endfacet
  facet normal -1.000000 -0.000000 -0.000000
    outer loop
      vertex -1.000000 -0.783226 0.523339
      vertex -1.000000 -0.497488 0.748549
      vertex -1.000000 -0.114214 0.838478
    endloop
  endfacet
  facet normal -1.000000 -0.000000 -0.000000
    outer loop
      vertex -1.000000 -0.783226 0.523339
      vertex -1.000000 -0.114214 0.838478
      vertex -1.000000 0.000000 0.798371
    endloop
  endfacet
  facet normal -1.000000 -0.000000 -0.000000
    outer loop
      vertex -1.000000 -1.000000 0.030924
      vertex -1.000000 -1.000000 0.273564
      vertex -1.000000 -0.919239 0.416137
    endloop
  endfacet
  facet normal -1.000000 -0.000000 -0.000000
    outer loop
      vertex -1.000000 -1.000000 0.030924
      vertex -1.000000 -0.919239 0.416137
      vertex -1.000000 -0.783226 0.523339
    endloop
  endfacet
  facet normal -1.000000 -0.000000 -0.000000
    outer loop
      vertex -1.000000 -1.000000 0.030924
      vertex -1.000000 -0.783226 0.523339
      vertex -1.000000 -0.497488 0.623676
    endloop
  endfacet
  facet normal -1.000000 -0.000000 -0.000000
    outer loop
      vertex -1.000000 -1.000000 -0.087188
      vertex -1.000000 -1.000000 0.030924
      vertex -1.000000 -0.919239 0.126188
    endloop
  endfacet
  facet normal -1.000000 -0.000000 0.000000
    outer loop
      vertex -1.000000 0.998185 -1.000000
      vertex -1.000000 0.835353 0.225138
      vertex -1.000000 0.919239 0.126188
    endloop
  endfacet
  facet normal -1.000000 -0.000000 0.000000
    outer loop
      vertex -1.000000 0.998185 -1.000000
      vertex -1.000000 0.919239 0.126188
      vertex -1.000000 1.000000 -0.087188
    endloop
  endfacet
  facet normal -1.000000 -0.000000 0.000000
    outer loop
      vertex -1.000000 0.998185 -1.000000
      vertex -1.000000 1.000000 -0.087188
      vertex -1.000000 1.000000 -1.000000
    endloop
  endfacet
  facet normal -1.000000 -0.000000 -0.000000
    outer loop
      vertex -1.000000 0.919239 -0.406014
      vertex -1.000000 0.675063 0.414214
      vertex -1.000000 0.835353 0.225138
    endloop
  endfacet
  facet normal -1.000000 -0.000000 -0.000000
    outer loop
      vertex -1.000000 -1.000000 -0.677304
      vertex -1.000000 -1.000000 -0.087188
      vertex -1.000000 -0.919239 0.126188
    endloop
  endfacet
  facet normal -1.000000 -0.000000 -0.000000
    outer loop
      vertex -1.000000 -1.000000 -0.677304
      vertex -1.000000 -0.919239 0.126188
      vertex -1.000000 -0.675063 0.414214
    endloop
  endfacet
  facet normal -1.000000 -0.000000 -0.000000
    outer loop
      vertex -1.000000 -0.998185 -1.000000
      vertex -1.000000 -1.000000 -1.000000
      vertex -1.000000 -1.000000 -0.677304
    endloop
  endfacet
  facet normal -1.000000 -0.000000 -0.000000
    outer loop
      vertex -1.000000 -0.998185 -1.000000
      vertex -1.000000 -1.000000 -0.677304
      vertex -1.000000 -0.919239 -0.406014
    endloop
  endfacet
  facet normal -1.000000 -0.000000 -0.000000
    outer loop
      vertex -1.000000 0.844625 -0.155375
      vertex -1.000000 0.919239 -0.406014
      vertex -1.000000 0.998185 -1.000000
    endloop
  endfacet
  facet normal -1.000000 -0.000000 -0.000000
    outer loop
      vertex -1.000000 0.844625 -0.155375
      vertex -1.000000 0.998185 -1.000000
      vertex -1.000000 0.732367 -1.000000
    endloop
  endfacet
  facet normal -1.000000 -0.000000 -0.000000
    outer loop
      vertex -1.000000 0.798371 0.000000
      vertex -1.000000 0.844625 -0.155375
      vertex -1.000000 0.732367 -1.000000
    endloop
  endfacet
  facet normal -1.000000 -0.000000 -0.000000
    outer loop
      vertex -1.000000 0.798371 0.000000
      vertex -1.000000 0.732367 -1.000000
      vertex -1.000000 0.500678 -1.000000
    endloop
  endfacet
  facet normal -1.000000 -0.000000 -0.000000
    outer loop
      vertex -1.000000 -0.508202 -1.000000
      vertex -1.000000 -0.998185 -1.000000
      vertex -1.000000 -0.940702 -0.567500
    endloop
  endfacet
  facet normal -1.000000 -0.000000 -0.000000
    outer loop
      vertex -1.000000 -0.500678 -1.000000
      vertex -1.000000 -0.508202 -1.000000
      vertex -1.000000 -0.940702 -0.567500
    endloop
  endfacet
  facet normal -1.000000 -0.000000 -0.000000
    outer loop
      vertex -1.000000 -0.500678 -1.000000
      vertex -1.000000 -0.940702 -0.567500
      vertex -1.000000 -0.919239 -0.406014
    endloop
  endfacet
  facet normal -1.000000 -0.000000 -0.000000
    outer loop
      vertex -1.000000 -0.500678 -1.000000
      vertex -1.000000 -0.919239 -0.406014
      vertex -1.000000 -0.798371 -0.000000
    endloop
  endfacet
  facet normal -1.000000 -0.000000 -0.000000
    outer loop
      vertex -1.000000 0.675063 -0.414214
      vertex -1.000000 0.500678 -1.000000
      vertex -1.000000 0.178457 -1.000000
    endloop
  endfacet
  facet normal -1.000000 -0.000000 -0.000000
    outer loop
      vertex -1.000000 0.497488 -0.623676
      vertex -1.000000 0.178457 -1.000000
      vertex -1.000000 -0.500678 -1.000000
    endloop
  endfacet
  facet normal -1.000000 -0.000000 -0.000000
    outer loop
      vertex -1.000000 0.497488 -0.623676
      vertex -1.000000 -0.500678 -1.000000
      vertex -1.000000 -0.507635 -0.976629
    endloop
  endfacet
  facet normal -1.000000 -0.000000 -0.000000
    outer loop
      vertex -1.000000 0.000000 -0.798371
      vertex -1.000000 -0.507635 -0.976629
      vertex -1.000000 -0.626157 -0.578494
    endloop
  endfacet
  facet normal -1.000000 -0.000000 -0.000000
    outer loop
      vertex -1.000000 -0.497488 -0.623676
      vertex -1.000000 -0.626157 -0.578494
      vertex -1.000000 -0.675063 -0.414214
    endloop
  endfacet
  facet normal 1.000000 -0.000000 -0.000000
    outer loop
      vertex 1.000000 0.998185 -1.000000
      vertex 1.000000 1.000000 -1.000000
      vertex 1.000000 1.000000 1.000000
    endloop
  endfacet
  facet normal 1.000000 -0.000000 -0.000000
    outer loop
      vertex 1.000000 0.998185 -1.000000
      vertex 1.000000 1.000000 1.000000
      vertex 1.000000 0.732367 1.000000
    endloop
  endfacet
  facet normal 1.000000 -0.000000 -0.000000
    outer loop
      vertex 1.000000 0.919239 -0.406014
      vertex 1.000000 0.732367 1.000000
      vertex 1.000000 0.500678 1.000000
    endloop
  endfacet
  facet normal 1.000000 -0.000000 -0.000000
    outer loop
      vertex 1.000000 -1.000000 0.508202
      vertex 1.000000 -0.508202 1.000000
      vertex 1.000000 -1.000000 1.000000
    endloop
  endfacet
  facet normal 1.000000 -0.000000 0.000000
    outer loop
      vertex 1.000000 -1.000000 0.508202
      vertex 1.000000 -1.000000 -0.677304
      vertex 1.000000 -0.500678 1.000000
    endloop
  endfacet
  facet normal 1.000000 -0.000000 0.000000
    outer loop
      vertex 1.000000 -1.000000 0.508202
      vertex 1.000000 -0.500678 1.000000
      vertex 1.000000 -0.508202 1.000000
    endloop
  endfacet
  facet normal 1.000000 -0.000000 -0.000000
    outer loop
      vertex 1.000000 -0.919239 -0.406014
      vertex 1.000000 -1.000000 -0.677304
      vertex 1.000000 -1.000000 -1.000000
    endloop
  endfacet
  facet normal 1.000000 -0.000000 -0.000000
    outer loop
      vertex 1.000000 -0.919239 -0.406014
      vertex 1.000000 -1.000000 -1.000000
      vertex 1.000000 -0.998185 -1.000000
    endloop
  endfacet
  facet normal 1.000000 -0.000000 -0.000000
    outer loop
      vertex 1.000000 0.675063 0.414214
      vertex 1.000000 0.500678 1.000000
      vertex 1.000000 0.178457 1.000000
    endloop
  endfacet
  facet normal 1.000000 -0.000000 -0.000000
    outer loop
      vertex 1.000000 -0.507635 0.976629
      vertex 1.000000 0.497488 0.623676
      vertex 1.000000 0.178457 1.000000
    endloop
  endfacet
  facet normal 1.000000 -0.000000 -0.000000
    outer loop
      vertex 1.000000 -0.507635 0.976629
      vertex 1.000000 0.178457 1.000000
      vertex 1.000000 -0.500678 1.000000
    endloop
  endfacet
  facet normal 1.000000 -0.000000 -0.000000
    outer loop
      vertex 1.000000 0.000000 0.798371
      vertex 1.000000 -0.507635 0.976629
      vertex 1.000000 -0.626157 0.578494
    endloop
  endfacet
  facet normal 1.000000 -0.000000 -0.000000
    outer loop
      vertex 1.000000 -0.497488 0.623676
      vertex 1.000000 -0.626157 0.578494
      vertex 1.000000 -0.675063 0.414214
    endloop
  endfacet
  facet normal 1.000000 -0.000000 0.000000
    outer loop
      vertex 1.000000 0.732367 -1.000000
      vertex 1.000000 0.998185 -1.000000
      vertex 1.000000 0.954083 -0.668179
    endloop
  endfacet
  facet normal 1.000000 -0.000000 -0.000000
    outer loop
      vertex 1.000000 0.500678 -1.000000
      vertex 1.000000 0.732367 -1.000000
      vertex 1.000000 0.919239 -0.720326
    endloop
  endfacet
  facet normal 1.000000 -0.000000 -0.000000
    outer loop
      vertex 1.000000 -0.985565 -0.905047
      vertex 1.000000 -0.998185 -1.000000
      vertex 1.000000 -0.508202 -1.000000
    endloop
  endfacet
  facet normal 1.000000 -0.000000 -0.000000
    outer loop
      vertex 1.000000 -0.957606 -0.694690
      vertex 1.000000 -0.985565 -0.905047
      vertex 1.000000 -0.508202 -1.000000
    endloop
  endfacet
  facet normal 1.000000 -0.000000 -0.000000
    outer loop
      vertex 1.000000 -0.957606 -0.694690
      vertex 1.000000 -0.508202 -1.000000
      vertex 1.000000 -0.500678 -1.000000
    endloop
  endfacet
  facet normal 1.000000 -0.000000 -0.000000
    outer loop
      vertex 1.000000 -0.954083 -0.668179
      vertex 1.000000 -0.957606 -0.694690
      vertex 1.000000 -0.919239 -0.720326
    endloop
  endfacet
  facet normal 1.000000 -0.000000 0.000000
    outer loop
      vertex 1.000000 0.641995 -0.905575
      vertex 1.000000 0.919239 -0.720326
      vertex 1.000000 0.954083 -0.668179
    endloop
  endfacet
  facet normal 1.000000 -0.000000 0.000000
    outer loop
      vertex 1.000000 0.641995 -0.905575
      vertex 1.000000 0.954083 -0.668179
      vertex 1.000000 0.920329 -0.414214
    endloop
  endfacet
  facet normal 1.000000 -0.000000 -0.000000
    outer loop
      vertex 1.000000 0.178457 -1.000000
      vertex 1.000000 0.500678 -1.000000
      vertex 1.000000 0.641995 -0.905575
    endloop
  endfacet
  facet normal 1.000000 -0.000000 -0.000000
    outer loop
      vertex 1.000000 0.178457 -1.000000
      vertex 1.000000 0.641995 -0.905575
      vertex 1.000000 0.919239 -0.416137
    endloop
  endfacet
  facet normal 1.000000 -0.000000 -0.000000
    outer loop
      vertex 1.000000 -0.519783 -0.987234
      vertex 1.000000 -0.500678 -1.000000
      vertex 1.000000 0.178457 -1.000000
    endloop
  endfacet
  facet normal 1.000000 -0.000000 -0.000000
    outer loop
      vertex 1.000000 -0.519783 -0.987234
      vertex 1.000000 0.178457 -1.000000
      vertex 1.000000 0.497488 -0.748549
    endloop
  endfacet
  facet normal 1.000000 0.000000 -0.000000
    outer loop
      vertex 1.000000 -0.950634 -0.642226
      vertex 1.000000 -0.954083 -0.668179
      vertex 1.000000 -0.919239 -0.720326
    endloop
  endfacet
  facet normal 1.000000 0.000000 -0.000000
    outer loop
      vertex 1.000000 -0.950634 -0.642226
      vertex 1.000000 -0.919239 -0.720326
      vertex 1.000000 -0.519783 -0.987234
    endloop
  endfacet
  facet normal 1.000000 0.000000 -0.000000
    outer loop
      vertex 1.000000 -0.950634 -0.642226
      vertex 1.000000 -0.519783 -0.987234
      vertex 1.000000 0.000000 -0.865276
    endloop
  endfacet
  facet normal 1.000000 -0.000000 -0.000000
    outer loop
      vertex 1.000000 -0.920457 -0.415178
      vertex 1.000000 -0.950634 -0.642226
      vertex 1.000000 -0.497488 -0.748549
    endloop
  endfacet
  facet normal 1.000000 -0.000000 -0.000000
    outer loop
      vertex 1.000000 -0.920329 -0.414214
      vertex 1.000000 -0.920457 -0.415178
      vertex 1.000000 -0.919239 -0.416137
    endloop
  endfacet
  facet normal 1.000000 -0.000000 -0.000000
    outer loop
      vertex 1.000000 0.762838 -0.539408
      vertex 1.000000 0.919239 -0.416137
      vertex 1.000000 0.920329 -0.414214
    endloop
  endfacet
  facet normal 1.000000 -0.000000 -0.000000
    outer loop
      vertex 1.000000 0.762838 -0.539408
      vertex 1.000000 0.920329 -0.414214
      vertex 1.000000 0.919239 -0.406014
    endloop
  endfacet
  facet normal 1.000000 -0.000000 -0.000000
    outer loop
      vertex 1.000000 0.762838 -0.539408
      vertex 1.000000 0.919239 -0.406014
      vertex 1.000000 0.872611 -0.249382
    endloop
  endfacet
  facet normal 1.000000 -0.000000 0.000000
    outer loop
      vertex 1.000000 0.365341 -0.779555
      vertex 1.000000 0.497488 -0.748549
      vertex 1.000000 0.762838 -0.539408
    endloop
  endfacet
  facet normal 1.000000 -0.000000 0.000000
    outer loop
      vertex 1.000000 0.365341 -0.779555
      vertex 1.000000 0.762838 -0.539408
      vertex 1.000000 0.872611 -0.249382
    endloop
  endfacet
  facet normal 1.000000 -0.000000 0.000000
    outer loop
      vertex 1.000000 0.365341 -0.779555
      vertex 1.000000 0.872611 -0.249382
      vertex 1.000000 0.857586 -0.198912
    endloop
  endfacet
  facet normal 1.000000 -0.000000 -0.000000
    outer loop
      vertex 1.000000 -0.114214 -0.838478
      vertex 1.000000 0.000000 -0.865276
      vertex 1.000000 0.365341 -0.779555
    endloop
  endfacet
  facet normal 1.000000 -0.000000 -0.000000
    outer loop
      vertex 1.000000 -0.114214 -0.838478
      vertex 1.000000 0.365341 -0.779555
      vertex 1.000000 0.497488 -0.623676
    endloop
  endfacet
  facet normal 1.000000 0.000000 -0.000000
    outer loop
      vertex 1.000000 -0.783226 -0.523339
      vertex 1.000000 -0.497488 -0.748549
      vertex 1.000000 -0.114214 -0.838478
    endloop
  endfacet
  facet normal 1.000000 0.000000 -0.000000
    outer loop
      vertex 1.000000 -0.783226 -0.523339
      vertex 1.000000 -0.114214 -0.838478
      vertex 1.000000 0.000000 -0.798371
    endloop
  endfacet
  facet normal 1.000000 -0.000000 -0.000000
    outer loop
      vertex 1.000000 -0.857586 -0.198912
      vertex 1.000000 -0.919239 -0.406014
      vertex 1.000000 -0.920329 -0.414214
    endloop
  endfacet
  facet normal 1.000000 -0.000000 -0.000000
    outer loop
      vertex 1.000000 -0.857586 -0.198912
      vertex 1.000000 -0.920329 -0.414214
      vertex 1.000000 -0.919239 -0.416137
    endloop
  endfacet
  facet normal 1.000000 -0.000000 -0.000000
    outer loop
      vertex 1.000000 -0.857586 -0.198912
      vertex 1.000000 -0.919239 -0.416137
      vertex 1.000000 -0.783226 -0.523339
    endloop
  endfacet
  facet normal 1.000000 -0.000000 -0.000000
    outer loop
      vertex 1.000000 -0.857586 -0.198912
      vertex 1.000000 -0.783226 -0.523339
      vertex 1.000000 -0.497488 -0.623676
    endloop
  endfacet
  facet normal 1.000000 -0.000000 0.000000
    outer loop
      vertex 1.000000 0.835353 -0.225138
      vertex 1.000000 0.857586 -0.198912
      vertex 1.000000 0.844625 -0.155375
    endloop
  endfacet
  facet normal 1.000000 -0.000000 -0.000000
    outer loop
      vertex 1.000000 0.675063 -0.414214
      vertex 1.000000 0.835353 -0.225138
      vertex 1.000000 0.844625 -0.155375
    endloop
  endfacet
  facet normal 1.000000 -0.000000 -0.000000
    outer loop
      vertex 1.000000 0.675063 -0.414214
      vertex 1.000000 0.844625 -0.155375
      vertex 1.000000 0.798371 0.000000
    endloop
  endfacet
  facet normal 1.000000 -0.000000 -0.000000
    outer loop
      vertex 1.000000 -0.798371 0.000000
      vertex 1.000000 -0.857586 -0.198912
      vertex 1.000000 -0.675063 -0.414214
    endloop
  endfacet
  facet normal 0.000000 -1.000000 -0.000000
    outer loop
      vertex 1.000000 -1.000000 0.508202
      vertex 1.000000 -1.000000 1.000000
      vertex 0.902175 -1.000000 1.000000
    endloop
  endfacet
  facet normal 0.000000 -1.000000 -0.000000
    outer loop
      vertex 1.000000 -1.000000 -0.677304
      vertex 1.000000 -1.000000 0.508202
      vertex 0.902175 -1.000000 1.000000
    endloop
  endfacet
  facet normal 0.000000 -1.000000 -0.000000
    outer loop
      vertex 1.000000 -1.000000 -0.677304
      vertex 0.902175 -1.000000 1.000000
      vertex 0.666364 -1.000000 1.000000
    endloop
  endfacet
  facet normal 0.000000 -1.000000 -0.000000
    outer loop
      vertex 0.997284 -1.000000 -1.000000
      vertex 1.000000 -1.000000 -1.000000
      vertex 1.000000 -1.000000 -0.677304
    endloop
  endfacet
  facet normal 0.000000 -1.000000 -0.000000
    outer loop
      vertex 0.997284 -1.000000 -1.000000
      vertex 1.000000 -1.000000 -0.677304
      vertex 0.666364 -1.000000 1.000000
    endloop
  endfacet
  facet normal 0.000000 -1.000000 -0.000000
    outer loop
      vertex 0.997284 -1.000000 -1.000000
      vertex 0.666364 -1.000000 1.000000
      vertex 0.599459 -1.000000 1.000000
    endloop
  endfacet
  facet normal 0.000000 -1.000000 -0.000000
    outer loop
      vertex 0.704146 -1.000000 0.473700
      vertex 0.599459 -1.000000 1.000000
      vertex 0.352484 -1.000000 1.000000
    endloop
  endfacet
  facet normal 0.000000 -1.000000 -0.000000
    outer loop
      vertex 0.737599 -1.000000 0.305523
      vertex 0.704146 -1.000000 0.473700
      vertex 0.352484 -1.000000 1.000000
    endloop
  endfacet
  facet normal 0.000000 -1.000000 -0.000000
    outer loop
      vertex 0.737599 -1.000000 0.305523
      vertex 0.352484 -1.000000 1.000000
      vertex 0.273564 -1.000000 1.000000
    endloop
  endfacet
  facet normal 0.000000 -1.000000 -0.000000
    outer loop
      vertex 0.469269 -1.000000 0.707107
      vertex 0.273564 -1.000000 1.000000
      vertex 0.030924 -1.000000 1.000000
    endloop
  endfacet
  facet normal 0.000000 -1.000000 -0.000000
    outer loop
      vertex 0.564534 -1.000000 0.564534
      vertex 0.469269 -1.000000 0.707107
      vertex 0.030924 -1.000000 1.000000
    endloop
  endfacet
  facet normal 0.000000 -1.000000 -0.000000
    outer loop
      vertex 0.564534 -1.000000 0.564534
      vertex 0.030924 -1.000000 1.000000
      vertex -0.087188 -1.000000 1.000000
    endloop
  endfacet
  facet normal 0.000000 -1.000000 -0.000000
    outer loop
      vertex 0.162950 -1.000000 0.832863
      vertex -0.087188 -1.000000 1.000000
      vertex -0.677304 -1.000000 1.000000
    endloop
  endfacet
  facet normal 0.000000 -1.000000 -0.000000
    outer loop
      vertex -1.000000 -1.000000 0.997284
      vertex 0.305523 -1.000000 0.737599
      vertex 0.162950 -1.000000 0.832863
    endloop
  endfacet
  facet normal 0.000000 -1.000000 -0.000000
    outer loop
      vertex -1.000000 -1.000000 0.997284
      vertex 0.162950 -1.000000 0.832863
      vertex -0.677304 -1.000000 1.000000
    endloop
  endfacet
  facet normal 0.000000 -1.000000 -0.000000
    outer loop
      vertex -1.000000 -1.000000 0.997284
      vertex -0.677304 -1.000000 1.000000
      vertex -1.000000 -1.000000 1.000000
    endloop
  endfacet
  facet normal -0.000000 -1.000000 -0.000000
    outer loop
      vertex -0.760929 -1.000000 0.949729
      vertex -1.000000 -1.000000 0.997284
      vertex -1.000000 -1.000000 0.902175
    endloop
  endfacet
  facet normal -0.000000 -1.000000 -0.000000
    outer loop
      vertex -0.168176 -1.000000 0.831824
      vertex -0.760929 -1.000000 0.949729
      vertex -1.000000 -1.000000 0.902175
    endloop
  endfacet
  facet normal -0.000000 -1.000000 -0.000000
    outer loop
      vertex -0.168176 -1.000000 0.831824
      vertex -1.000000 -1.000000 0.902175
      vertex -1.000000 -1.000000 0.666364
    endloop
  endfacet
  facet normal -0.000000 -1.000000 -0.000000
    outer loop
      vertex -0.000000 -1.000000 0.798371
      vertex -0.168176 -1.000000 0.831824
      vertex -1.000000 -1.000000 0.666364
    endloop
  endfacet
  facet normal -0.000000 -1.000000 -0.000000
    outer loop
      vertex -0.000000 -1.000000 0.798371
      vertex -1.000000 -1.000000 0.666364
      vertex -1.000000 -1.000000 0.599459
    endloop
  endfacet
  facet normal -0.000000 -1.000000 -0.000000
    outer loop
      vertex -0.473700 -1.000000 0.704146
      vertex -1.000000 -1.000000 0.599459
      vertex -1.000000 -1.000000 0.352484
    endloop
  endfacet
  facet normal -0.000000 -1.000000 -0.000000
    outer loop
      vertex -0.305523 -1.000000 0.737599
      vertex -0.473700 -1.000000 0.704146
      vertex -1.000000 -1.000000 0.352484
    endloop
  endfacet
  facet normal -0.000000 -1.000000 -0.000000
    outer loop
      vertex -0.305523 -1.000000 0.737599
      vertex -1.000000 -1.000000 0.352484
      vertex -1.000000 -1.000000 0.273564
    endloop
  endfacet
  facet normal -0.000000 -1.000000 -0.000000
    outer loop
      vertex -0.707107 -1.000000 0.469269
      vertex -1.000000 -1.000000 0.273564
      vertex -1.000000 -1.000000 0.030924
    endloop
  endfacet
  facet normal -0.000000 -1.000000 -0.000000
    outer loop
      vertex -0.564534 -1.000000 0.564534
      vertex -0.707107 -1.000000 0.469269
      vertex -1.000000 -1.000000 0.030924
    endloop
  endfacet
  facet normal -0.000000 -1.000000 -0.000000
    outer loop
      vertex -0.564534 -1.000000 0.564534
      vertex -1.000000 -1.000000 0.030924
      vertex -1.000000 -1.000000 -0.087188
    endloop
  endfacet
  facet normal -0.000000 -1.000000 -0.000000
    outer loop
      vertex -0.832863 -1.000000 0.162950
      vertex -1.000000 -1.000000 -0.087188
      vertex -1.000000 -1.000000 -0.677304
    endloop
  endfacet
  facet normal -0.000000 -1.000000 -0.000000
    outer loop
      vertex -0.737599 -1.000000 0.305523
      vertex -0.832863 -1.000000 0.162950
      vertex -1.000000 -1.000000 -0.677304
    endloop
  endfacet
  facet normal -0.000000 -1.000000 -0.000000
    outer loop
      vertex -0.737599 -1.000000 0.305523
      vertex -1.000000 -1.000000 -0.677304
      vertex -1.000000 -1.000000 -1.000000
    endloop
  endfacet
  facet normal -0.000000 -1.000000 -0.000000
    outer loop
      vertex -0.737599 -1.000000 0.305523
      vertex -1.000000 -1.000000 -1.000000
      vertex -0.997284 -1.000000 -1.000000
    endloop
  endfacet
  facet normal -0.000000 -1.000000 -0.000000
    outer loop
      vertex -0.949729 -1.000000 -0.760929
      vertex -0.997284 -1.000000 -1.000000
      vertex -0.902175 -1.000000 -1.000000
    endloop
  endfacet
  facet normal -0.000000 -1.000000 -0.000000
    outer loop
      vertex -0.831824 -1.000000 -0.168176
      vertex -0.949729 -1.000000 -0.760929
      vertex -0.902175 -1.000000 -1.000000
    endloop
  endfacet
  facet normal -0.000000 -1.000000 -0.000000
    outer loop
      vertex -0.831824 -1.000000 -0.168176
      vertex -0.902175 -1.000000 -1.000000
      vertex -0.666364 -1.000000 -1.000000
    endloop
  endfacet
  facet normal -0.000000 -1.000000 -0.000000
    outer loop
      vertex -0.798371 -1.000000 0.000000
      vertex -0.831824 -1.000000 -0.168176
      vertex -0.666364 -1.000000 -1.000000
    endloop
  endfacet
  facet normal -0.000000 -1.000000 -0.000000
    outer loop
      vertex -0.798371 -1.000000 0.000000
      vertex -0.666364 -1.000000 -1.000000
      vertex -0.599459 -1.000000 -1.000000
    endloop
  endfacet
  facet normal -0.000000 -1.000000 -0.000000
    outer loop
      vertex -0.704146 -1.000000 -0.473700
      vertex -0.599459 -1.000000 -1.000000
      vertex -0.352484 -1.000000 -1.000000
    endloop
  endfacet
  facet normal -0.000000 -1.000000 -0.000000
    outer loop
      vertex -0.737599 -1.000000 -0.305523
      vertex -0.704146 -1.000000 -0.473700
      vertex -0.352484 -1.000000 -1.000000
    endloop
  endfacet
  facet normal -0.000000 -1.000000 -0.000000
    outer loop
      vertex -0.737599 -1.000000 -0.305523
      vertex -0.352484 -1.000000 -1.000000
      vertex -0.273564 -1.000000 -1.000000
    endloop
  endfacet
  facet normal -0.000000 -1.000000 -0.000000
    outer loop
      vertex -0.469269 -1.000000 -0.707107
      vertex -0.273564 -1.000000 -1.000000
      vertex -0.030924 -1.000000 -1.000000
    endloop
  endfacet
  facet normal -0.000000 -1.000000 -0.000000
    outer loop
      vertex -0.564534 -1.000000 -0.564534
      vertex -0.469269 -1.000000 -0.707107
      vertex -0.030924 -1.000000 -1.000000
    endloop
  endfacet
  facet normal -0.000000 -1.000000 -0.000000
    outer loop
      vertex -0.564534 -1.000000 -0.564534
      vertex -0.030924 -1.000000 -1.000000
      vertex 0.087188 -1.000000 -1.000000
    endloop
  endfacet
  facet normal -0.000000 -1.000000 -0.000000
    outer loop
      vertex -0.162950 -1.000000 -0.832863
      vertex 0.087188 -1.000000 -1.000000
      vertex 0.677304 -1.000000 -1.000000
    endloop
  endfacet
  facet normal -0.000000 -1.000000 -0.000000
    outer loop
      vertex -0.305523 -1.000000 -0.737599
      vertex -0.162950 -1.000000 -0.832863
      vertex 0.677304 -1.000000 -1.000000
    endloop
  endfacet
  facet normal -0.000000 -1.000000 -0.000000
    outer loop
      vertex -0.305523 -1.000000 -0.737599
      vertex 0.677304 -1.000000 -1.000000
      vertex 0.997284 -1.000000 -1.000000
    endloop
  endfacet
  facet normal -0.000000 -1.000000 -0.000000
    outer loop
      vertex -0.305523 -1.000000 -0.737599
      vertex 0.997284 -1.000000 -1.000000
      vertex 0.996609 -1.000000 -0.996609
    endloop
  endfacet
  facet normal -0.000000 -1.000000 -0.000000
    outer loop
      vertex 0.760929 -1.000000 -0.949729
      vertex 0.996609 -1.000000 -0.996609
      vertex 0.978669 -1.000000 -0.906418
    endloop
  endfacet
  facet normal -0.000000 -1.000000 -0.000000
    outer loop
      vertex 0.168176 -1.000000 -0.831824
      vertex 0.760929 -1.000000 -0.949729
      vertex 0.978669 -1.000000 -0.906418
    endloop
  endfacet
  facet normal -0.000000 -1.000000 -0.000000
    outer loop
      vertex 0.168176 -1.000000 -0.831824
      vertex 0.978669 -1.000000 -0.906418
      vertex 0.933548 -1.000000 -0.679582
    endloop
  endfacet
  facet normal -0.000000 -1.000000 -0.000000
    outer loop
      vertex -0.000000 -1.000000 -0.798371
      vertex 0.168176 -1.000000 -0.831824
      vertex 0.933548 -1.000000 -0.679582
    endloop
  endfacet
  facet normal -0.000000 -1.000000 -0.000000
    outer loop
      vertex -0.000000 -1.000000 -0.798371
      vertex 0.933548 -1.000000 -0.679582
      vertex 0.920747 -1.000000 -0.615223
    endloop
  endfacet
  facet normal -0.000000 -1.000000 -0.000000
    outer loop
      vertex 0.473700 -1.000000 -0.704146
      vertex 0.920747 -1.000000 -0.615223
      vertex 0.883914 -1.000000 -0.430050
    endloop
  endfacet
  facet normal -0.000000 -1.000000 -0.000000
    outer loop
      vertex 0.305523 -1.000000 -0.737599
      vertex 0.473700 -1.000000 -0.704146
      vertex 0.883914 -1.000000 -0.430050
    endloop
  endfacet
  facet normal -0.000000 -1.000000 -0.000000
    outer loop
      vertex 0.305523 -1.000000 -0.737599
      vertex 0.883914 -1.000000 -0.430050
      vertex 0.870057 -1.000000 -0.360389
    endloop
  endfacet
  facet normal -0.000000 -1.000000 -0.000000
    outer loop
      vertex 0.707107 -1.000000 -0.469269
      vertex 0.870057 -1.000000 -0.360389
      vertex 0.849365 -1.000000 -0.256365
    endloop
  endfacet
  facet normal -0.000000 -1.000000 -0.000000
    outer loop
      vertex 0.564534 -1.000000 -0.564534
      vertex 0.707107 -1.000000 -0.469269
      vertex 0.849365 -1.000000 -0.256365
    endloop
  endfacet
  facet normal -0.000000 -1.000000 -0.000000
    outer loop
      vertex 0.564534 -1.000000 -0.564534
      vertex 0.849365 -1.000000 -0.256365
      vertex 0.831261 -1.000000 -0.165348
    endloop
  endfacet
  facet normal -0.000000 -1.000000 -0.000000
    outer loop
      vertex 0.737599 -1.000000 -0.305523
      vertex 0.831261 -1.000000 -0.165348
      vertex 0.798371 -1.000000 0.000000
    endloop
  endfacet
  facet normal -0.000000 1.000000 -0.000000
    outer loop
      vertex 0.997284 1.000000 -1.000000
      vertex 0.599459 1.000000 1.000000
      vertex 1.000000 1.000000 1.000000
    endloop
  endfacet
  facet normal -0.000000 1.000000 -0.000000
    outer loop
      vertex 0.997284 1.000000 -1.000000
      vertex 1.000000 1.000000 1.000000
      vertex 1.000000 1.000000 -1.000000
    endloop
  endfacet
  facet normal 0.000000 1.000000 0.000000
    outer loop
      vertex 0.737599 1.000000 0.305523
      vertex 0.273564 1.000000 1.000000
      vertex 0.599459 1.000000 1.000000
    endloop
  endfacet
  facet normal 0.000000 1.000000 0.000000
    outer loop
      vertex 0.564534 1.000000 0.564534
      vertex -0.087188 1.000000 1.000000
      vertex 0.273564 1.000000 1.000000
    endloop
  endfacet
  facet normal 0.000000 1.000000 -0.000000
    outer loop
      vertex 0.305523 1.000000 0.737599
      vertex -1.000000 1.000000 0.997284
      vertex -1.000000 1.000000 1.000000
    endloop
  endfacet
  facet normal 0.000000 1.000000 -0.000000
    outer loop
      vertex 0.305523 1.000000 0.737599
      vertex -1.000000 1.000000 1.000000
      vertex -0.087188 1.000000 1.000000
    endloop
  endfacet
  facet normal -0.000000 1.000000 -0.000000
    outer loop
      vertex 0.000000 1.000000 0.798371
      vertex -1.000000 1.000000 0.599459
      vertex -1.000000 1.000000 0.997284
    endloop
  endfacet
  facet normal -0.000000 1.000000 -0.000000
    outer loop
      vertex -0.305523 1.000000 0.737599
      vertex -1.000000 1.000000 0.273564
      vertex -1.000000 1.000000 0.599459
    endloop
  endfacet
  facet normal -0.000000 1.000000 -0.000000
    outer loop
      vertex -0.564534 1.000000 0.564534
      vertex -1.000000 1.000000 -0.087188
      vertex -1.000000 1.000000 0.273564
    endloop
  endfacet
  facet normal -0.000000 1.000000 -0.000000
    outer loop
      vertex -0.737599 1.000000 0.305523
      vertex -0.997284 1.000000 -1.000000
      vertex -1.000000 1.000000 -1.000000
    endloop
  endfacet
  facet normal -0.000000 1.000000 -0.000000
    outer loop
      vertex -0.737599 1.000000 0.305523
      vertex -1.000000 1.000000 -1.000000
      vertex -1.000000 1.000000 -0.087188
    endloop
  endfacet
  facet normal -0.000000 1.000000 -0.000000
    outer loop
      vertex -0.798371 1.000000 0.000000
      vertex -0.599459 1.000000 -1.000000
      vertex -0.997284 1.000000 -1.000000
    endloop
  endfacet
  facet normal -0.000000 1.000000 -0.000000
    outer loop
      vertex -0.737599 1.000000 -0.305523
      vertex -0.273564 1.000000 -1.000000
      vertex -0.599459 1.000000 -1.000000
    endloop
  endfacet
  facet normal -0.000000 1.000000 -0.000000
    outer loop
      vertex -0.564534 1.000000 -0.564534
      vertex 0.087188 1.000000 -1.000000
      vertex -0.273564 1.000000 -1.000000
    endloop
  endfacet
  facet normal -0.000000 1.000000 -0.000000
    outer loop
      vertex -0.305523 1.000000 -0.737599
      vertex 0.996609 1.000000 -0.996609
      vertex 0.997284 1.000000 -1.000000
    endloop
  endfacet
  facet normal -0.000000 1.000000 -0.000000
    outer loop
      vertex -0.305523 1.000000 -0.737599
      vertex 0.997284 1.000000 -1.000000
      vertex 0.087188 1.000000 -1.000000
    endloop
  endfacet
  facet normal -0.000000 1.000000 -0.000000
    outer loop
      vertex -0.000000 1.000000 -0.798371
      vertex 0.920747 1.000000 -0.615223
      vertex 0.996609 1.000000 -0.996609
    endloop
  endfacet
  facet normal 0.000000 1.000000 -0.000000
    outer loop
      vertex 0.305523 1.000000 -0.737599
      vertex 0.870057 1.000000 -0.360389
      vertex 0.920747 1.000000 -0.615223
    endloop
  endfacet
  facet normal 0.000000 1.000000 -0.000000
    outer loop
      vertex 0.564534 1.000000 -0.564534
      vertex 0.831261 1.000000 -0.165348
      vertex 0.870057 1.000000 -0.360389
    endloop
  endfacet
  facet normal 0.000000 1.000000 -0.000000
    outer loop
      vertex 0.737599 1.000000 -0.305523
      vertex 0.798371 1.000000 0.000000
      vertex 0.831261 1.000000 -0.165348
    endloop
  endfacet
  facet normal -0.000000 0.000000 -1.000000
    outer loop
      vertex 0.997284 1.000000 -1.000000
      vertex 1.000000 1.000000 -1.000000
      vertex 1.000000 0.998185 -1.000000
    endloop
  endfacet
  facet normal -0.000000 0.000000 -1.000000
    outer loop
      vertex 0.997284 -1.000000 -1.000000
      vertex 1.000000 -0.998185 -1.000000
      vertex 1.000000 -1.000000 -1.000000
    endloop
  endfacet
  facet normal -0.000000 -0.000000 -1.000000
    outer loop
      vertex -1.000000 0.998185 -1.000000
      vertex -1.000000 1.000000 -1.000000
      vertex -0.997284 1.000000 -1.000000
    endloop
  endfacet
  facet normal -0.000000 -0.000000 -1.000000
    outer loop
      vertex -0.997284 -1.000000 -1.000000
      vertex -1.000000 -1.000000 -1.000000
      vertex -1.000000 -0.998185 -1.000000
    endloop
  endfacet
  facet normal -0.000000 -0.000000 -1.000000
    outer loop
      vertex -1.000000 0.732367 -1.000000
      vertex -1.000000 0.998185 -1.000000
      vertex -0.997284 1.000000 -1.000000
    endloop
  endfacet
  facet normal -0.000000 -0.000000 -1.000000
    outer loop
      vertex -1.000000 0.732367 -1.000000
      vertex -0.997284 1.000000 -1.000000
      vertex -0.599459 1.000000 -1.000000
    endloop
  endfacet
  facet normal -0.000000 -0.000000 -1.000000
    outer loop
      vertex -1.000000 0.500678 -1.000000
      vertex -1.000000 0.732367 -1.000000
      vertex -0.720326 0.919239 -1.000000
    endloop
  endfacet
  facet normal -0.000000 -0.000000 -1.000000
    outer loop
      vertex -0.902175 -1.000000 -1.000000
      vertex -0.997284 -1.000000 -1.000000
      vertex -1.000000 -0.998185 -1.000000
    endloop
  endfacet
  facet normal -0.000000 -0.000000 -1.000000
    outer loop
      vertex -0.902175 -1.000000 -1.000000
      vertex -1.000000 -0.998185 -1.000000
      vertex -1.000000 -0.508202 -1.000000
    endloop
  endfacet
  facet normal -0.000000 -0.000000 -1.000000
    outer loop
      vertex -0.666364 -1.000000 -1.000000
      vertex -0.902175 -1.000000 -1.000000
      vertex -1.000000 -0.508202 -1.000000
    endloop
  endfacet
  facet normal -0.000000 -0.000000 -1.000000
    outer loop
      vertex -0.666364 -1.000000 -1.000000
      vertex -1.000000 -0.508202 -1.000000
      vertex -1.000000 -0.500678 -1.000000
    endloop
  endfacet
  facet normal -0.000000 -0.000000 -1.000000
    outer loop
      vertex -0.599459 -1.000000 -1.000000
      vertex -0.666364 -1.000000 -1.000000
      vertex -0.720326 -0.919239 -1.000000
    endloop
  endfacet
  facet normal -0.000000 -0.000000 -1.000000
    outer loop
      vertex -0.905575 0.641995 -1.000000
      vertex -0.720326 0.919239 -1.000000
      vertex -0.599459 1.000000 -1.000000
    endloop
  endfacet
  facet normal -0.000000 -0.000000 -1.000000
    outer loop
      vertex -0.905575 0.641995 -1.000000
      vertex -0.599459 1.000000 -1.000000
      vertex -0.273564 1.000000 -1.000000
    endloop
  endfacet
  facet normal -0.000000 -0.000000 -1.000000
    outer loop
      vertex -1.000000 0.178457 -1.000000
      vertex -1.000000 0.500678 -1.000000
      vertex -0.905575 0.641995 -1.000000
    endloop
  endfacet
  facet normal -0.000000 -0.000000 -1.000000
    outer loop
      vertex -1.000000 0.178457 -1.000000
      vertex -0.905575 0.641995 -1.000000
      vertex -0.416137 0.919239 -1.000000
    endloop
  endfacet
  facet normal -0.000000 -0.000000 -1.000000
    outer loop
      vertex -0.987234 -0.519783 -1.000000
      vertex -1.000000 -0.500678 -1.000000
      vertex -1.000000 0.178457 -1.000000
    endloop
  endfacet
  facet normal -0.000000 -0.000000 -1.000000
    outer loop
      vertex -0.987234 -0.519783 -1.000000
      vertex -1.000000 0.178457 -1.000000
      vertex -0.748549 0.497488 -1.000000
    endloop
  endfacet
  facet normal -0.000000 -0.000000 -1.000000
    outer loop
      vertex -0.636441 -0.975289 -1.000000
      vertex -0.720326 -0.919239 -1.000000
      vertex -0.987234 -0.519783 -1.000000
    endloop
  endfacet
  facet normal -0.000000 -0.000000 -1.000000
    outer loop
      vertex -0.636441 -0.975289 -1.000000
      vertex -0.987234 -0.519783 -1.000000
      vertex -0.865276 0.000000 -1.000000
    endloop
  endfacet
  facet normal -0.000000 -0.000000 -1.000000
    outer loop
      vertex -0.352484 -1.000000 -1.000000
      vertex -0.599459 -1.000000 -1.000000
      vertex -0.636441 -0.975289 -1.000000
    endloop
  endfacet
  facet normal -0.000000 -0.000000 -1.000000
    outer loop
      vertex -0.352484 -1.000000 -1.000000
      vertex -0.636441 -0.975289 -1.000000
      vertex -0.748549 -0.497488 -1.000000
    endloop
  endfacet
  facet normal -0.000000 -0.000000 -1.000000
    outer loop
      vertex -0.273564 -1.000000 -1.000000
      vertex -0.352484 -1.000000 -1.000000
      vertex -0.416137 -0.919239 -1.000000
    endloop
  endfacet
  facet normal -0.000000 -0.000000 -1.000000
    outer loop
      vertex -0.539408 0.762838 -1.000000
      vertex -0.416137 0.919239 -1.000000
      vertex -0.273564 1.000000 -1.000000
    endloop
  endfacet
  facet normal -0.000000 -0.000000 -1.000000
    outer loop
      vertex -0.539408 0.762838 -1.000000
      vertex -0.273564 1.000000 -1.000000
      vertex 0.087188 1.000000 -1.000000
    endloop
  endfacet
  facet normal -0.000000 -0.000000 -1.000000
    outer loop
      vertex -0.779555 0.365341 -1.000000
      vertex -0.748549 0.497488 -1.000000
      vertex -0.539408 0.762838 -1.000000
    endloop
  endfacet
  facet normal -0.000000 -0.000000 -1.000000
    outer loop
      vertex -0.779555 0.365341 -1.000000
      vertex -0.539408 0.762838 -1.000000
      vertex -0.126188 0.919239 -1.000000
    endloop
  endfacet
  facet normal -0.000000 -0.000000 -1.000000
    outer loop
      vertex -0.838478 -0.114214 -1.000000
      vertex -0.865276 0.000000 -1.000000
      vertex -0.779555 0.365341 -1.000000
    endloop
  endfacet
  facet normal -0.000000 -0.000000 -1.000000
    outer loop
      vertex -0.838478 -0.114214 -1.000000
      vertex -0.779555 0.365341 -1.000000
      vertex -0.623676 0.497488 -1.000000
    endloop
  endfacet
  facet normal -0.000000 -0.000000 -1.000000
    outer loop
      vertex -0.523339 -0.783226 -1.000000
      vertex -0.748549 -0.497488 -1.000000
      vertex -0.838478 -0.114214 -1.000000
    endloop
  endfacet
  facet normal -0.000000 -0.000000 -1.000000
    outer loop
      vertex -0.523339 -0.783226 -1.000000
      vertex -0.838478 -0.114214 -1.000000
      vertex -0.798371 0.000000 -1.000000
    endloop
  endfacet
  facet normal -0.000000 -0.000000 -1.000000
    outer loop
      vertex -0.030924 -1.000000 -1.000000
      vertex -0.273564 -1.000000 -1.000000
      vertex -0.416137 -0.919239 -1.000000
    endloop
  endfacet
  facet normal -0.000000 -0.000000 -1.000000
    outer loop
      vertex -0.030924 -1.000000 -1.000000
      vertex -0.416137 -0.919239 -1.000000
      vertex -0.523339 -0.783226 -1.000000
    endloop
  endfacet
  facet normal -0.000000 -0.000000 -1.000000
    outer loop
      vertex -0.030924 -1.000000 -1.000000
      vertex -0.523339 -0.783226 -1.000000
      vertex -0.623676 -0.497488 -1.000000
    endloop
  endfacet
  facet normal -0.000000 -0.000000 -1.000000
    outer loop
      vertex 0.087188 -1.000000 -1.000000
      vertex -0.030924 -1.000000 -1.000000
      vertex -0.126188 -0.919239 -1.000000
    endloop
  endfacet
  facet normal -0.000000 -0.000000 -1.000000
    outer loop
      vertex -0.225138 0.835353 -1.000000
      vertex -0.126188 0.919239 -1.000000
      vertex 0.087188 1.000000 -1.000000
    endloop
  endfacet
  facet normal -0.000000 -0.000000 -1.000000
    outer loop
      vertex -0.225138 0.835353 -1.000000
      vertex 0.087188 1.000000 -1.000000
      vertex 0.997284 1.000000 -1.000000
    endloop
  endfacet
  facet normal -0.000000 -0.000000 -1.000000
    outer loop
      vertex -0.225138 0.835353 -1.000000
      vertex 0.997284 1.000000 -1.000000
      vertex 1.000000 0.998185 -1.000000
    endloop
  endfacet
  facet normal -0.000000 -0.000000 -1.000000
    outer loop
      vertex -0.414214 0.675063 -1.000000
      vertex -0.225138 0.835353 -1.000000
      vertex 0.406014 0.919239 -1.000000
    endloop
  endfacet
  facet normal -0.000000 -0.000000 -1.000000
    outer loop
      vertex 0.677304 -1.000000 -1.000000
      vertex 0.087188 -1.000000 -1.000000
      vertex -0.126188 -0.919239 -1.000000
    endloop
  endfacet
  facet normal -0.000000 -0.000000 -1.000000
    outer loop
      vertex 0.677304 -1.000000 -1.000000
      vertex -0.126188 -0.919239 -1.000000
      vertex -0.414214 -0.675063 -1.000000
    endloop
  endfacet
  facet normal -0.000000 -0.000000 -1.000000
    outer loop
      vertex 0.997284 -1.000000 -1.000000
      vertex 0.677304 -1.000000 -1.000000
      vertex 0.406014 -0.919239 -1.000000
    endloop
  endfacet
  facet normal -0.000000 -0.000000 -1.000000
    outer loop
      vertex 0.997284 -1.000000 -1.000000
      vertex 0.406014 -0.919239 -1.000000
      vertex 1.000000 -0.998185 -1.000000
    endloop
  endfacet
  facet normal -0.000000 0.000000 -1.000000
    outer loop
      vertex 0.155375 0.844625 -1.000000
      vertex 0.406014 0.919239 -1.000000
      vertex 1.000000 0.998185 -1.000000
    endloop
  endfacet
  facet normal -0.000000 0.000000 -1.000000
    outer loop
      vertex 0.155375 0.844625 -1.000000
      vertex 1.000000 0.998185 -1.000000
      vertex 1.000000 0.732367 -1.000000
    endloop
  endfacet
  facet normal -0.000000 0.000000 -1.000000
    outer loop
      vertex -0.000000 0.798371 -1.000000
      vertex 0.155375 0.844625 -1.000000
      vertex 1.000000 0.732367 -1.000000
    endloop
  endfacet
  facet normal -0.000000 0.000000 -1.000000
    outer loop
      vertex -0.000000 0.798371 -1.000000
      vertex 1.000000 0.732367 -1.000000
      vertex 1.000000 0.500678 -1.000000
    endloop
  endfacet
  facet normal -0.000000 0.000000 -1.000000
    outer loop
      vertex 0.567500 -0.940702 -1.000000
      vertex 1.000000 -0.508202 -1.000000
      vertex 1.000000 -0.998185 -1.000000
    endloop
  endfacet
  facet normal -0.000000 0.000000 -1.000000
    outer loop
      vertex 0.567500 -0.940702 -1.000000
      vertex 0.406014 -0.919239 -1.000000
      vertex -0.000000 -0.798371 -1.000000
    endloop
  endfacet
  facet normal -0.000000 0.000000 -1.000000
    outer loop
      vertex 0.567500 -0.940702 -1.000000
      vertex -0.000000 -0.798371 -1.000000
      vertex 1.000000 -0.500678 -1.000000
    endloop
  endfacet
  facet normal -0.000000 0.000000 -1.000000
    outer loop
      vertex 0.567500 -0.940702 -1.000000
      vertex 1.000000 -0.500678 -1.000000
      vertex 1.000000 -0.508202 -1.000000
    endloop
  endfacet
  facet normal -0.000000 0.000000 -1.000000
    outer loop
      vertex 0.414214 0.675063 -1.000000
      vertex 1.000000 0.500678 -1.000000
      vertex 1.000000 0.178457 -1.000000
    endloop
  endfacet
  facet normal -0.000000 0.000000 -1.000000
    outer loop
      vertex 0.976629 -0.507635 -1.000000
      vertex 0.623676 0.497488 -1.000000
      vertex 1.000000 0.178457 -1.000000
    endloop
  endfacet
  facet normal -0.000000 0.000000 -1.000000
    outer loop
      vertex 0.976629 -0.507635 -1.000000
      vertex 1.000000 0.178457 -1.000000
      vertex 1.000000 -0.500678 -1.000000
    endloop
  endfacet
  facet normal -0.000000 -0.000000 -1.000000
    outer loop
      vertex 0.798371 0.000000 -1.000000
      vertex 0.976629 -0.507635 -1.000000
      vertex 0.578494 -0.626157 -1.000000
    endloop
  endfacet
  facet normal -0.000000 -0.000000 -1.000000
    outer loop
      vertex 0.623676 -0.497488 -1.000000
      vertex 0.578494 -0.626157 -1.000000
      vertex 0.414214 -0.675063 -1.000000
    endloop
  endfacet
  facet normal -0.000000 -0.000000 1.000000
    outer loop
      vertex 1.000000 0.732367 1.000000
      vertex 1.000000 1.000000 1.000000
      vertex 0.599459 1.000000 1.000000
    endloop
  endfacet
  facet normal -0.000000 -0.000000 1.000000
    outer loop
      vertex 1.000000 0.500678 1.000000
      vertex 1.000000 0.732367 1.000000
      vertex 0.720326 0.919239 1.000000
    endloop
  endfacet
  facet normal -0.000000 0.000000 1.000000
    outer loop
      vertex 0.902175 -1.000000 1.000000
      vertex 1.000000 -1.000000 1.000000
      vertex 1.000000 -0.508202 1.000000
    endloop
  endfacet
  facet normal -0.000000 0.000000 1.000000
    outer loop
      vertex 0.666364 -1.000000 1.000000
      vertex 0.902175 -1.000000 1.000000
      vertex 1.000000 -0.508202 1.000000
    endloop
  endfacet
  facet normal -0.000000 0.000000 1.000000
    outer loop
      vertex 0.666364 -1.000000 1.000000
      vertex 1.000000 -0.508202 1.000000
      vertex 1.000000 -0.500678 1.000000
    endloop
  endfacet
  facet normal -0.000000 -0.000000 1.000000
    outer loop
      vertex 0.599459 -1.000000 1.000000
      vertex 0.666364 -1.000000 1.000000
      vertex 0.720326 -0.919239 1.000000
    endloop
  endfacet
  facet normal -0.000000 -0.000000 1.000000
    outer loop
      vertex 0.905575 0.641995 1.000000
      vertex 0.720326 0.919239 1.000000
      vertex 0.599459 1.000000 1.000000
    endloop
  endfacet
  facet normal -0.000000 -0.000000 1.000000
    outer loop
      vertex 0.905575 0.641995 1.000000
      vertex 0.599459 1.000000 1.000000
      vertex 0.273564 1.000000 1.000000
    endloop
  endfacet
  facet normal -0.000000 -0.000000 1.000000
    outer loop
      vertex 1.000000 0.178457 1.000000
      vertex 1.000000 0.500678 1.000000
      vertex 0.905575 0.641995 1.000000
    endloop
  endfacet
  facet normal -0.000000 -0.000000 1.000000
    outer loop
      vertex 1.000000 0.178457 1.000000
      vertex 0.905575 0.641995 1.000000
      vertex 0.416137 0.919239 1.000000
    endloop
  endfacet
  facet normal -0.000000 -0.000000 1.000000
    outer loop
      vertex 0.987234 -0.519783 1.000000
      vertex 1.000000 -0.500678 1.000000
      vertex 1.000000 0.178457 1.000000
    endloop
  endfacet
  facet normal -0.000000 -0.000000 1.000000
    outer loop
      vertex 0.987234 -0.519783 1.000000
      vertex 1.000000 0.178457 1.000000
      vertex 0.748549 0.497488 1.000000
    endloop
  endfacet
  facet normal -0.000000 0.000000 1.000000
    outer loop
      vertex 0.636441 -0.975289 1.000000
      vertex 0.720326 -0.919239 1.000000
      vertex 0.987234 -0.519783 1.000000
    endloop
  endfacet
  facet normal -0.000000 0.000000 1.000000
    outer loop
      vertex 0.636441 -0.975289 1.000000
      vertex 0.987234 -0.519783 1.000000
      vertex 0.865276 0.000000 1.000000
    endloop
  endfacet
  facet normal -0.000000 -0.000000 1.000000
    outer loop
      vertex 0.352484 -1.000000 1.000000
      vertex 0.599459 -1.000000 1.000000
      vertex 0.636441 -0.975289 1.000000
    endloop
  endfacet
  facet normal -0.000000 -0.000000 1.000000
    outer loop
      vertex 0.352484 -1.000000 1.000000
      vertex 0.636441 -0.975289 1.000000
      vertex 0.748549 -0.497488 1.000000
    endloop
  endfacet
  facet normal -0.000000 -0.000000 1.000000
    outer loop
      vertex 0.273564 -1.000000 1.000000
      vertex 0.352484 -1.000000 1.000000
      vertex 0.416137 -0.919239 1.000000
    endloop
  endfacet
  facet normal -0.000000 -0.000000 1.000000
    outer loop
      vertex 0.539408 0.762838 1.000000
      vertex 0.416137 0.919239 1.000000
      vertex 0.273564 1.000000 1.000000
    endloop
  endfacet
  facet normal -0.000000 -0.000000 1.000000
    outer loop
      vertex 0.539408 0.762838 1.000000
      vertex 0.273564 1.000000 1.000000
      vertex -0.087188 1.000000 1.000000
    endloop
  endfacet
  facet normal -0.000000 -0.000000 1.000000
    outer loop
      vertex 0.779555 0.365341 1.000000
      vertex 0.748549 0.497488 1.000000
      vertex 0.539408 0.762838 1.000000
    endloop
  endfacet
  facet normal -0.000000 -0.000000 1.000000
    outer loop
      vertex 0.779555 0.365341 1.000000
      vertex 0.539408 0.762838 1.000000
      vertex 0.126188 0.919239 1.000000
    endloop
  endfacet
  facet normal -0.000000 -0.000000 1.000000
    outer loop
      vertex 0.838478 -0.114214 1.000000
      vertex 0.865276 0.000000 1.000000
      vertex 0.779555 0.365341 1.000000
    endloop
  endfacet
  facet normal -0.000000 -0.000000 1.000000
    outer loop
      vertex 0.838478 -0.114214 1.000000
      vertex 0.779555 0.365341 1.000000
      vertex 0.623676 0.497488 1.000000
    endloop
  endfacet
  facet normal -0.000000 0.000000 1.000000
    outer loop
      vertex 0.523339 -0.783226 1.000000
      vertex 0.748549 -0.497488 1.000000
      vertex 0.838478 -0.114214 1.000000
    endloop
  endfacet
  facet normal -0.000000 0.000000 1.000000
    outer loop
      vertex 0.523339 -0.783226 1.000000
      vertex 0.838478 -0.114214 1.000000
      vertex 0.798371 0.000000 1.000000
    endloop
  endfacet
  facet normal -0.000000 -0.000000 1.000000
    outer loop
      vertex 0.030924 -1.000000 1.000000
      vertex 0.273564 -1.000000 1.000000
      vertex 0.416137 -0.919239 1.000000
    endloop
  endfacet
  facet normal -0.000000 -0.000000 1.000000
    outer loop
      vertex 0.030924 -1.000000 1.000000
      vertex 0.416137 -0.919239 1.000000
      vertex 0.523339 -0.783226 1.000000
    endloop
  endfacet
  facet normal -0.000000 -0.000000 1.000000
    outer loop
      vertex 0.030924 -1.000000 1.000000
      vertex 0.523339 -0.783226 1.000000
      vertex 0.623676 -0.497488 1.000000
    endloop
  endfacet
  facet normal -0.000000 -0.000000 1.000000
    outer loop
      vertex -0.087188 -1.000000 1.000000
      vertex 0.030924 -1.000000 1.000000
      vertex 0.126188 -0.919239 1.000000
    endloop
  endfacet
  facet normal -0.000000 -0.000000 1.000000
    outer loop
      vertex -1.000000 0.998185 1.000000
      vertex 0.225138 0.835353 1.000000
      vertex 0.126188 0.919239 1.000000
    endloop
  endfacet
  facet normal -0.000000 -0.000000 1.000000
    outer loop
      vertex -1.000000 0.998185 1.000000
      vertex 0.126188 0.919239 1.000000
      vertex -0.087188 1.000000 1.000000
    endloop
  endfacet
  facet normal -0.000000 -0.000000 1.000000
    outer loop
      vertex -1.000000 0.998185 1.000000
      vertex -0.087188 1.000000 1.000000
      vertex -1.000000 1.000000 1.000000
    endloop
  endfacet
  facet normal 0.000000 0.000000 1.000000
    outer loop
      vertex -0.406014 0.919239 1.000000
      vertex 0.414214 0.675063 1.000000
      vertex 0.225138 0.835353 1.000000
    endloop
  endfacet
  facet normal -0.000000 -0.000000 1.000000
    outer loop
      vertex -0.677304 -1.000000 1.000000
      vertex -0.087188 -1.000000 1.000000
      vertex 0.126188 -0.919239 1.000000
    endloop
  endfacet
  facet normal -0.000000 -0.000000 1.000000
    outer loop
      vertex -0.677304 -1.000000 1.000000
      vertex 0.126188 -0.919239 1.000000
      vertex 0.414214 -0.675063 1.000000
    endloop
  endfacet
  facet normal -0.000000 -0.000000 1.000000
    outer loop
      vertex -1.000000 -0.998185 1.000000
      vertex -1.000000 -1.000000 1.000000
      vertex -0.677304 -1.000000 1.000000
    endloop
  endfacet
  facet normal -0.000000 -0.000000 1.000000
    outer loop
      vertex -1.000000 -0.998185 1.000000
      vertex -0.677304 -1.000000 1.000000
      vertex -0.406014 -0.919239 1.000000
    endloop
  endfacet
  facet normal -0.000000 -0.000000 1.000000
    outer loop
      vertex -0.155375 0.844625 1.000000
      vertex -0.406014 0.919239 1.000000
      vertex -1.000000 0.998185 1.000000
    endloop
  endfacet
  facet normal -0.000000 -0.000000 1.000000
    outer loop
      vertex -0.155375 0.844625 1.000000
      vertex -1.000000 0.998185 1.000000
      vertex -1.000000 0.732367 1.000000
    endloop
  endfacet
  facet normal -0.000000 -0.000000 1.000000
    outer loop
      vertex 0.000000 0.798371 1.000000
      vertex -0.155375 0.844625 1.000000
      vertex -1.000000 0.732367 1.000000
    endloop
  endfacet
  facet normal -0.000000 -0.000000 1.000000
    outer loop
      vertex 0.000000 0.798371 1.000000
      vertex -1.000000 0.732367 1.000000
      vertex -1.000000 0.500678 1.000000
    endloop
  endfacet
  facet normal 0.000000 -0.000000 1.000000
    outer loop
      vertex -1.000000 -0.508202 1.000000
      vertex -1.000000 -0.998185 1.000000
      vertex -0.567500 -0.940702 1.000000
    endloop
  endfacet
  facet normal -0.000000 -0.000000 1.000000
    outer loop
      vertex -1.000000 -0.500678 1.000000
      vertex -1.000000 -0.508202 1.000000
      vertex -0.567500 -0.940702 1.000000
    endloop
  endfacet
  facet normal -0.000000 -0.000000 1.000000
    outer loop
      vertex -1.000000 -0.500678 1.000000
      vertex -0.567500 -0.940702 1.000000
      vertex -0.406014 -0.919239 1.000000
    endloop
  endfacet
  facet normal -0.000000 -0.000000 1.000000
    outer loop
      vertex -1.000000 -0.500678 1.000000
      vertex -0.406014 -0.919239 1.000000
      vertex -0.000000 -0.798371 1.000000
    endloop
  endfacet
  facet normal -0.000000 -0.000000 1.000000
    outer loop
      vertex -0.414214 0.675063 1.000000
      vertex -1.000000 0.500678 1.000000
      vertex -1.000000 0.178457 1.000000
    endloop
  endfacet
  facet normal -0.000000 -0.000000 1.000000
    outer loop
      vertex -0.623676 0.497488 1.000000
      vertex -1.000000 0.178457 1.000000
      vertex -1.000000 -0.500678 1.000000
    endloop
  endfacet
  facet normal -0.000000 -0.000000 1.000000
    outer loop
      vertex -0.623676 0.497488 1.000000
      vertex -1.000000 -0.500678 1.000000
      vertex -0.976629 -0.507635 1.000000
    endloop
  endfacet
  facet normal -0.000000 -0.000000 1.000000
    outer loop
      vertex -0.798371 0.000000 1.000000
      vertex -0.976629 -0.507635 1.000000
      vertex -0.578494 -0.626157 1.000000
    endloop
  endfacet
  facet normal -0.000000 -0.000000 1.000000
    outer loop
      vertex -0.623676 -0.497488 1.000000
      vertex -0.578494 -0.626157 1.000000
      vertex -0.414214 -0.675063 1.000000
    endloop
  endfacet
  facet normal -0.552209 -0.826439 -0.109841
    outer loop
      vertex 0.798371 1.000000 0.000000
      vertex 0.919239 0.919239 0.000000
      vertex 0.849266 0.919239 0.351777
    endloop
  endfacet
  facet normal -0.552209 -0.826439 -0.109841
    outer loop
      vertex 0.798371 1.000000 0.000000
      vertex 0.849266 0.919239 0.351777
      vertex 0.737599 1.000000 0.305523
    endloop
  endfacet
  facet normal -0.820326 -0.548124 -0.163173
    outer loop
      vertex 1.000000 0.798371 0.000000
      vertex 1.000000 0.675063 0.414214
      vertex 0.849266 0.919239 0.351777
    endloop
  endfacet
  facet normal -0.820326 -0.548124 -0.163173
    outer loop
      vertex 1.000000 0.798371 0.000000
      vertex 0.849266 0.919239 0.351777
      vertex 0.919239 0.919239 0.000000
    endloop
  endfacet
  facet normal -0.820326 0.548124 -0.163173
    outer loop
      vertex 1.000000 -0.798371 0.000000
      vertex 0.919239 -0.919239 0.000000
      vertex 0.849266 -0.919239 0.351777
    endloop
  endfacet
  facet normal -0.820326 0.548124 -0.163173
    outer loop
      vertex 1.000000 -0.798371 0.000000
      vertex 0.849266 -0.919239 0.351777
      vertex 1.000000 -0.675063 0.414214
    endloop
  endfacet
  facet normal -0.552209 0.826439 -0.109841
    outer loop
      vertex 0.798371 -1.000000 0.000000
      vertex 0.737599 -1.000000 0.305523
      vertex 0.849266 -0.919239 0.351777
    endloop
  endfacet
  facet normal -0.552209 0.826439 -0.109841
    outer loop
      vertex 0.798371 -1.000000 0.000000
      vertex 0.849266 -0.919239 0.351777
      vertex 0.919239 -0.919239 0.000000
    endloop
  endfacet
  facet normal -0.468140 -0.826439 -0.312801
    outer loop
      vertex 0.737599 1.000000 0.305523
      vertex 0.849266 0.919239 0.351777
      vertex 0.650000 0.919239 0.650000
    endloop
  endfacet
  facet normal -0.468140 -0.826439 -0.312801
    outer loop
      vertex 0.737599 1.000000 0.305523
      vertex 0.650000 0.919239 0.650000
      vertex 0.564534 1.000000 0.564534
    endloop
  endfacet
  facet normal -0.695439 -0.548124 -0.464677
    outer loop
      vertex 1.000000 0.675063 0.414214
      vertex 1.000000 0.497488 0.623676
      vertex 0.849266 0.497488 0.849266
    endloop
  endfacet
  facet normal -0.695439 -0.548124 -0.464677
    outer loop
      vertex 1.000000 0.675063 0.414214
      vertex 0.849266 0.497488 0.849266
      vertex 0.650000 0.919239 0.650000
    endloop
  endfacet
  facet normal -0.695439 -0.548124 -0.464677
    outer loop
      vertex 1.000000 0.675063 0.414214
      vertex 0.650000 0.919239 0.650000
      vertex 0.849266 0.919239 0.351777
    endloop
  endfacet
  facet normal -0.816084 -0.191480 -0.545290
    outer loop
      vertex 1.000000 0.000000 0.798371
      vertex 0.919239 0.000000 0.919239
      vertex 0.849266 0.497488 0.849266
    endloop
  endfacet
  facet normal -0.816084 -0.191480 -0.545290
    outer loop
      vertex 1.000000 0.000000 0.798371
      vertex 0.849266 0.497488 0.849266
      vertex 1.000000 0.497488 0.623676
    endloop
  endfacet
  facet normal -0.816084 0.191480 -0.545290
    outer loop
      vertex 1.000000 -0.497488 0.623676
      vertex 0.849266 -0.497488 0.849266
      vertex 0.919239 0.000000 0.919239
    endloop
  endfacet
  facet normal -0.816084 0.191480 -0.545290
    outer loop
      vertex 1.000000 -0.497488 0.623676
      vertex 0.919239 0.000000 0.919239
      vertex 1.000000 0.000000 0.798371
    endloop
  endfacet
  facet normal -0.695439 0.548124 -0.464677
    outer loop
      vertex 1.000000 -0.675063 0.414214
      vertex 0.849266 -0.919239 0.351777
      vertex 0.650000 -0.919239 0.650000
    endloop
  endfacet
  facet normal -0.695439 0.548124 -0.464677
    outer loop
      vertex 1.000000 -0.675063 0.414214
      vertex 0.650000 -0.919239 0.650000
      vertex 0.849266 -0.497488 0.849266
    endloop
  endfacet
  facet normal -0.695439 0.548124 -0.464677
    outer loop
      vertex 1.000000 -0.675063 0.414214
      vertex 0.849266 -0.497488 0.849266
      vertex 1.000000 -0.497488 0.623676
    endloop
  endfacet
  facet normal -0.468140 0.826439 -0.312801
    outer loop
      vertex 0.737599 -1.000000 0.305523
      vertex 0.564534 -1.000000 0.564534
      vertex 0.650000 -0.919239 0.650000
    endloop
  endfacet
  facet normal -0.468140 0.826439 -0.312801
    outer loop
      vertex 0.737599 -1.000000 0.305523
      vertex 0.650000 -0.919239 0.650000
      vertex 0.849266 -0.919239 0.351777
    endloop
  endfacet
  facet normal -0.312801 -0.826439 -0.468140
    outer loop
      vertex 0.564534 1.000000 0.564534
      vertex 0.650000 0.919239 0.650000
      vertex 0.351777 0.919239 0.849266
    endloop
  endfacet
  facet normal -0.312801 -0.826439 -0.468140
    outer loop
      vertex 0.564534 1.000000 0.564534
      vertex 0.351777 0.919239 0.849266
      vertex 0.305523 1.000000 0.737599
    endloop
  endfacet
  facet normal -0.464677 -0.548124 -0.695439
    outer loop
      vertex 0.849266 0.497488 0.849266
      vertex 0.623676 0.497488 1.000000
      vertex 0.414214 0.675063 1.000000
    endloop
  endfacet
  facet normal -0.464677 -0.548124 -0.695439
    outer loop
      vertex 0.849266 0.497488 0.849266
      vertex 0.414214 0.675063 1.000000
      vertex 0.351777 0.919239 0.849266
    endloop
  endfacet
  facet normal -0.464677 -0.548124 -0.695439
    outer loop
      vertex 0.849266 0.497488 0.849266
      vertex 0.351777 0.919239 0.849266
      vertex 0.650000 0.919239 0.650000
    endloop
  endfacet
  facet normal -0.545290 -0.191480 -0.816084
    outer loop
      vertex 0.919239 0.000000 0.919239
      vertex 0.798371 0.000000 1.000000
      vertex 0.623676 0.497488 1.000000
    endloop
  endfacet
  facet normal -0.545290 -0.191480 -0.816084
    outer loop
      vertex 0.919239 0.000000 0.919239
      vertex 0.623676 0.497488 1.000000
      vertex 0.849266 0.497488 0.849266
    endloop
  endfacet
  facet normal -0.545290 0.191480 -0.816084
    outer loop
      vertex 0.849266 -0.497488 0.849266
      vertex 0.623676 -0.497488 1.000000
      vertex 0.798371 0.000000 1.000000
    endloop
  endfacet
  facet normal -0.545290 0.191480 -0.816084
    outer loop
      vertex 0.849266 -0.497488 0.849266
      vertex 0.798371 0.000000 1.000000
      vertex 0.919239 0.000000 0.919239
    endloop
  endfacet
  facet normal -0.464677 0.548124 -0.695439
    outer loop
      vertex 0.650000 -0.919239 0.650000
      vertex 0.351777 -0.919239 0.849266
      vertex 0.414214 -0.675063 1.000000
    endloop
  endfacet
  facet normal -0.464677 0.548124 -0.695439
    outer loop
      vertex 0.650000 -0.919239 0.650000
      vertex 0.414214 -0.675063 1.000000
      vertex 0.623676 -0.497488 1.000000
    endloop
  endfacet
  facet normal -0.464677 0.548124 -0.695439
    outer loop
      vertex 0.650000 -0.919239 0.650000
      vertex 0.623676 -0.497488 1.000000
      vertex 0.849266 -0.497488 0.849266
    endloop
  endfacet
  facet normal -0.312801 0.826439 -0.468140
    outer loop
      vertex 0.564534 -1.000000 0.564534
      vertex 0.305523 -1.000000 0.737599
      vertex 0.351777 -0.919239 0.849266
    endloop
  endfacet
  facet normal -0.312801 0.826439 -0.468140
    outer loop
      vertex 0.564534 -1.000000 0.564534
      vertex 0.351777 -0.919239 0.849266
      vertex 0.650000 -0.919239 0.650000
    endloop
  endfacet
  facet normal -0.109841 -0.826439 -0.552209
    outer loop
      vertex 0.305523 1.000000 0.737599
      vertex 0.351777 0.919239 0.849266
      vertex 0.000000 0.919239 0.919239
    endloop
  endfacet
  facet normal -0.109841 -0.826439 -0.552209
    outer loop
      vertex 0.305523 1.000000 0.737599
      vertex 0.000000 0.919239 0.919239
      vertex 0.000000 1.000000 0.798371
    endloop
  endfacet
  facet normal -0.163173 -0.548124 -0.820326
    outer loop
      vertex 0.414214 0.675063 1.000000
      vertex 0.000000 0.798371 1.000000
      vertex 0.000000 0.919239 0.919239
    endloop
  endfacet
  facet normal -0.163173 -0.548124 -0.820326
    outer loop
      vertex 0.414214 0.675063 1.000000
      vertex 0.000000 0.919239 0.919239
      vertex 0.351777 0.919239 0.849266
    endloop
  endfacet
  facet normal -0.163173 0.548124 -0.820326
    outer loop
      vertex 0.414214 -0.675063 1.000000
      vertex 0.351777 -0.919239 0.849266
      vertex 0.000000 -0.919239 0.919239
    endloop
  endfacet
  facet normal -0.163173 0.548124 -0.820326
    outer loop
      vertex 0.414214 -0.675063 1.000000
      vertex 0.000000 -0.919239 0.919239
      vertex 0.000000 -0.798371 1.000000
    endloop
  endfacet
  facet normal -0.109841 0.826439 -0.552209
    outer loop
      vertex 0.305523 -1.000000 0.737599
      vertex 0.000000 -1.000000 0.798371
      vertex 0.000000 -0.919239 0.919239
    endloop
  endfacet
  facet normal -0.109841 0.826439 -0.552209
    outer loop
      vertex 0.305523 -1.000000 0.737599
      vertex 0.000000 -0.919239 0.919239
      vertex 0.351777 -0.919239 0.849266
    endloop
  endfacet
  facet normal 0.109841 -0.826439 -0.552209
    outer loop
      vertex 0.000000 1.000000 0.798371
      vertex 0.000000 0.919239 0.919239
      vertex -0.351777 0.919239 0.849266
    endloop
  endfacet
  facet normal 0.109841 -0.826439 -0.552209
    outer loop
      vertex 0.000000 1.000000 0.798371
      vertex -0.351777 0.919239 0.849266
      vertex -0.305523 1.000000 0.737599
    endloop
  endfacet
  facet normal 0.163173 -0.548124 -0.820326
    outer loop
      vertex 0.000000 0.798371 1.000000
      vertex -0.414214 0.675063 1.000000
      vertex -0.351777 0.919239 0.849266
    endloop
  endfacet
  facet normal 0.163173 -0.548124 -0.820326
    outer loop
      vertex 0.000000 0.798371 1.000000
      vertex -0.351777 0.919239 0.849266
      vertex 0.000000 0.919239 0.919239
    endloop
  endfacet
  facet normal 0.163173 0.548124 -0.820326
    outer loop
      vertex 0.000000 -0.798371 1.000000
      vertex 0.000000 -0.919239 0.919239
      vertex -0.351777 -0.919239 0.849266
    endloop
  endfacet
  facet normal 0.163173 0.548124 -0.820326
    outer loop
      vertex 0.000000 -0.798371 1.000000
      vertex -0.351777 -0.919239 0.849266
      vertex -0.414214 -0.675063 1.000000
    endloop
  endfacet
  facet normal 0.109841 0.826439 -0.552209
    outer loop
      vertex 0.000000 -1.000000 0.798371
      vertex -0.305523 -1.000000 0.737599
      vertex -0.351777 -0.919239 0.849266
    endloop
  endfacet
  facet normal 0.109841 0.826439 -0.552209
    outer loop
      vertex 0.000000 -1.000000 0.798371
      vertex -0.351777 -0.919239 0.849266
      vertex 0.000000 -0.919239 0.919239
    endloop
  endfacet
  facet normal 0.312801 -0.826439 -0.468140
    outer loop
      vertex -0.305523 1.000000 0.737599
      vertex -0.351777 0.919239 0.849266
      vertex -0.650000 0.919239 0.650000
    endloop
  endfacet
  facet normal 0.312801 -0.826439 -0.468140
    outer loop
      vertex -0.305523 1.000000 0.737599
      vertex -0.650000 0.919239 0.650000
      vertex -0.564534 1.000000 0.564534
    endloop
  endfacet
  facet normal 0.464677 -0.548124 -0.695439
    outer loop
      vertex -0.414214 0.675063 1.000000
      vertex -0.623676 0.497488 1.000000
      vertex -0.849266 0.497488 0.849266
    endloop
  endfacet
  facet normal 0.464677 -0.548124 -0.695439
    outer loop
      vertex -0.414214 0.675063 1.000000
      vertex -0.849266 0.497488 0.849266
      vertex -0.650000 0.919239 0.650000
    endloop
  endfacet
  facet normal 0.464677 -0.548124 -0.695439
    outer loop
      vertex -0.414214 0.675063 1.000000
      vertex -0.650000 0.919239 0.650000
      vertex -0.351777 0.919239 0.849266
    endloop
  endfacet
  facet normal 0.545290 -0.191480 -0.816084
    outer loop
      vertex -0.798371 0.000000 1.000000
      vertex -0.919239 0.000000 0.919239
      vertex -0.849266 0.497488 0.849266
    endloop
  endfacet
  facet normal 0.545290 -0.191480 -0.816084
    outer loop
      vertex -0.798371 0.000000 1.000000
      vertex -0.849266 0.497488 0.849266
      vertex -0.623676 0.497488 1.000000
    endloop
  endfacet
  facet normal 0.545290 0.191480 -0.816084
    outer loop
      vertex -0.623676 -0.497488 1.000000
      vertex -0.849266 -0.497488 0.849266
      vertex -0.919239 0.000000 0.919239
    endloop
  endfacet
  facet normal 0.545290 0.191480 -0.816084
    outer loop
      vertex -0.623676 -0.497488 1.000000
      vertex -0.919239 0.000000 0.919239
      vertex -0.798371 0.000000 1.000000
    endloop
  endfacet
  facet normal 0.464677 0.548124 -0.695439
    outer loop
      vertex -0.414214 -0.675063 1.000000
      vertex -0.351777 -0.919239 0.849266
      vertex -0.650000 -0.919239 0.650000
    endloop
  endfacet
  facet normal 0.464677 0.548124 -0.695439
    outer loop
      vertex -0.414214 -0.675063 1.000000
      vertex -0.650000 -0.919239 0.650000
      vertex -0.849266 -0.497488 0.849266
    endloop
  endfacet
  facet normal 0.464677 0.548124 -0.695439
    outer loop
      vertex -0.414214 -0.675063 1.000000
      vertex -0.849266 -0.497488 0.849266
      vertex -0.623676 -0.497488 1.000000
    endloop
  endfacet
  facet normal 0.312801 0.826439 -0.468140
    outer loop
      vertex -0.305523 -1.000000 0.737599
      vertex -0.564534 -1.000000 0.564534
      vertex -0.650000 -0.919239 0.650000
    endloop
  endfacet
  facet normal 0.312801 0.826439 -0.468140
    outer loop
      vertex -0.305523 -1.000000 0.737599
      vertex -0.650000 -0.919239 0.650000
      vertex -0.351777 -0.919239 0.849266
    endloop
  endfacet
  facet normal 0.468140 -0.826439 -0.312801
    outer loop
      vertex -0.564534 1.000000 0.564534
      vertex -0.650000 0.919239 0.650000
      vertex -0.849266 0.919239 0.351777
    endloop
  endfacet
  facet normal 0.468140 -0.826439 -0.312801
    outer loop
      vertex -0.564534 1.000000 0.564534
      vertex -0.849266 0.919239 0.351777
      vertex -0.737599 1.000000 0.305523
    endloop
  endfacet
  facet normal 0.695439 -0.548124 -0.464677
    outer loop
      vertex -0.849266 0.497488 0.849266
      vertex -1.000000 0.497488 0.623676
      vertex -1.000000 0.675063 0.414214
    endloop
  endfacet
  facet normal 0.695439 -0.548124 -0.464677
    outer loop
      vertex -0.849266 0.497488 0.849266
      vertex -1.000000 0.675063 0.414214
      vertex -0.849266 0.919239 0.351777
    endloop
  endfacet
  facet normal 0.695439 -0.548124 -0.464677
    outer loop
      vertex -0.849266 0.497488 0.849266
      vertex -0.849266 0.919239 0.351777
      vertex -0.650000 0.919239 0.650000
    endloop
  endfacet
  facet normal 0.816084 -0.191480 -0.545290
    outer loop
      vertex -0.919239 0.000000 0.919239
      vertex -1.000000 0.000000 0.798371
      vertex -1.000000 0.497488 0.623676
    endloop
  endfacet
  facet normal 0.816084 -0.191480 -0.545290
    outer loop
      vertex -0.919239 0.000000 0.919239
      vertex -1.000000 0.497488 0.623676
      vertex -0.849266 0.497488 0.849266
    endloop
  endfacet
  facet normal 0.816084 0.191480 -0.545290
    outer loop
      vertex -0.849266 -0.497488 0.849266
      vertex -1.000000 -0.497488 0.623676
      vertex -1.000000 0.000000 0.798371
    endloop
  endfacet
  facet normal 0.816084 0.191480 -0.545290
    outer loop
      vertex -0.849266 -0.497488 0.849266
      vertex -1.000000 0.000000 0.798371
      vertex -0.919239 0.000000 0.919239
    endloop
  endfacet
  facet normal 0.695439 0.548124 -0.464677
    outer loop
      vertex -0.650000 -0.919239 0.650000
      vertex -0.849266 -0.919239 0.351777
      vertex -1.000000 -0.675063 0.414214
    endloop
  endfacet
  facet normal 0.695439 0.548124 -0.464677
    outer loop
      vertex -0.650000 -0.919239 0.650000
      vertex -1.000000 -0.675063 0.414214
      vertex -1.000000 -0.497488 0.623676
    endloop
  endfacet
  facet normal 0.695439 0.548124 -0.464677
    outer loop
      vertex -0.650000 -0.919239 0.650000
      vertex -1.000000 -0.497488 0.623676
      vertex -0.849266 -0.497488 0.849266
    endloop
  endfacet
  facet normal 0.468140 0.826439 -0.312801
    outer loop
      vertex -0.564534 -1.000000 0.564534
      vertex -0.737599 -1.000000 0.305523
      vertex -0.849266 -0.919239 0.351777
    endloop
  endfacet
  facet normal 0.468140 0.826439 -0.312801
    outer loop
      vertex -0.564534 -1.000000 0.564534
      vertex -0.849266 -0.919239 0.351777
      vertex -0.650000 -0.919239 0.650000
    endloop
  endfacet
  facet normal 0.552209 -0.826439 -0.109841
    outer loop
      vertex -0.737599 1.000000 0.305523
      vertex -0.849266 0.919239 0.351777
      vertex -0.919239 0.919239 0.000000
    endloop
  endfacet
  facet normal 0.552209 -0.826439 -0.109841
    outer loop
      vertex -0.737599 1.000000 0.305523
      vertex -0.919239 0.919239 0.000000
      vertex -0.798371 1.000000 0.000000
    endloop
  endfacet
  facet normal 0.820326 -0.548124 -0.163173
    outer loop
      vertex -1.000000 0.675063 0.414214
      vertex -1.000000 0.798371 0.000000
      vertex -0.919239 0.919239 0.000000
    endloop
  endfacet
  facet normal 0.820326 -0.548124 -0.163173
    outer loop
      vertex -1.000000 0.675063 0.414214
      vertex -0.919239 0.919239 0.000000
      vertex -0.849266 0.919239 0.351777
    endloop
  endfacet
  facet normal 0.820326 0.548124 -0.163173
    outer loop
      vertex -1.000000 -0.675063 0.414214
      vertex -0.849266 -0.919239 0.351777
      vertex -0.919239 -0.919239 0.000000
    endloop
  endfacet
  facet normal 0.820326 0.548124 -0.163173
    outer loop
      vertex -1.000000 -0.675063 0.414214
      vertex -0.919239 -0.919239 0.000000
      vertex -1.000000 -0.798371 0.000000
    endloop
  endfacet
  facet normal 0.552209 0.826439 -0.109841
    outer loop
      vertex -0.737599 -1.000000 0.305523
      vertex -0.798371 -1.000000 0.000000
      vertex -0.919239 -0.919239 0.000000
    endloop
  endfacet
  facet normal 0.552209 0.826439 -0.109841
    outer loop
      vertex -0.737599 -1.000000 0.305523
      vertex -0.919239 -0.919239 0.000000
      vertex -0.849266 -0.919239 0.351777
    endloop
  endfacet
  facet normal 0.552209 -0.826439 0.109841
    outer loop
      vertex -0.798371 1.000000 0.000000
      vertex -0.919239 0.919239 0.000000
      vertex -0.849266 0.919239 -0.351777
    endloop
  endfacet
  facet normal 0.552209 -0.826439 0.109841
    outer loop
      vertex -0.798371 1.000000 0.000000
      vertex -0.849266 0.919239 -0.351777
      vertex -0.737599 1.000000 -0.305523
    endloop
  endfacet
  facet normal 0.820326 -0.548124 0.163173
    outer loop
      vertex -1.000000 0.798371 0.000000
      vertex -1.000000 0.675063 -0.414214
      vertex -0.849266 0.919239 -0.351777
    endloop
  endfacet
  facet normal 0.820326 -0.548124 0.163173
    outer loop
      vertex -1.000000 0.798371 0.000000
      vertex -0.849266 0.919239 -0.351777
      vertex -0.919239 0.919239 0.000000
    endloop
  endfacet
  facet normal 0.820326 0.548124 0.163173
    outer loop
      vertex -1.000000 -0.798371 0.000000
      vertex -0.919239 -0.919239 0.000000
      vertex -0.849266 -0.919239 -0.351777
    endloop
  endfacet
  facet normal 0.820326 0.548124 0.163173
    outer loop
      vertex -1.000000 -0.798371 0.000000
      vertex -0.849266 -0.919239 -0.351777
      vertex -1.000000 -0.675063 -0.414214
    endloop
  endfacet
  facet normal 0.552209 0.826439 0.109841
    outer loop
      vertex -0.798371 -1.000000 0.000000
      vertex -0.737599 -1.000000 -0.305523
      vertex -0.849266 -0.919239 -0.351777
    endloop
  endfacet
  facet normal 0.552209 0.826439 0.109841
    outer loop
      vertex -0.798371 -1.000000 0.000000
      vertex -0.849266 -0.919239 -0.351777
      vertex -0.919239 -0.919239 0.000000
    endloop
  endfacet
  facet normal 0.468140 -0.826439 0.312801
    outer loop
      vertex -0.737599 1.000000 -0.305523
      vertex -0.849266 0.919239 -0.351777
      vertex -0.650000 0.919239 -0.650000
    endloop
  endfacet
  facet normal 0.468140 -0.826439 0.312801
    outer loop
      vertex -0.737599 1.000000 -0.305523
      vertex -0.650000 0.919239 -0.650000
      vertex -0.564534 1.000000 -0.564534
    endloop
  endfacet
  facet normal 0.695439 -0.548124 0.464677
    outer loop
      vertex -1.000000 0.675063 -0.414214
      vertex -1.000000 0.497488 -0.623676
      vertex -0.849266 0.497488 -0.849266
    endloop
  endfacet
  facet normal 0.695439 -0.548124 0.464677
    outer loop
      vertex -1.000000 0.675063 -0.414214
      vertex -0.849266 0.497488 -0.849266
      vertex -0.650000 0.919239 -0.650000
    endloop
  endfacet
  facet normal 0.695439 -0.548124 0.464677
    outer loop
      vertex -1.000000 0.675063 -0.414214
      vertex -0.650000 0.919239 -0.650000
      vertex -0.849266 0.919239 -0.351777
    endloop
  endfacet
  facet normal 0.816084 -0.191480 0.545290
    outer loop
      vertex -1.000000 0.000000 -0.798371
      vertex -0.919239 0.000000 -0.919239
      vertex -0.849266 0.497488 -0.849266
    endloop
  endfacet
  facet normal 0.816084 -0.191480 0.545290
    outer loop
      vertex -1.000000 0.000000 -0.798371
      vertex -0.849266 0.497488 -0.849266
      vertex -1.000000 0.497488 -0.623676
    endloop
  endfacet
  facet normal 0.816084 0.191480 0.545290
    outer loop
      vertex -1.000000 -0.497488 -0.623676
      vertex -0.849266 -0.497488 -0.849266
      vertex -0.919239 0.000000 -0.919239
    endloop
  endfacet
  facet normal 0.816084 0.191480 0.545290
    outer loop
      vertex -1.000000 -0.497488 -0.623676
      vertex -0.919239 0.000000 -0.919239
      vertex -1.000000 0.000000 -0.798371
    endloop
  endfacet
  facet normal 0.695439 0.548124 0.464677
    outer loop
      vertex -1.000000 -0.675063 -0.414214
      vertex -0.849266 -0.919239 -0.351777
      vertex -0.650000 -0.919239 -0.650000
    endloop
  endfacet
  facet normal 0.695439 0.548124 0.464677
    outer loop
      vertex -1.000000 -0.675063 -0.414214
      vertex -0.650000 -0.919239 -0.650000
      vertex -0.849266 -0.497488 -0.849266
    endloop
  endfacet
  facet normal 0.695439 0.548124 0.464677
    outer loop
      vertex -1.000000 -0.675063 -0.414214
      vertex -0.849266 -0.497488 -0.849266
      vertex -1.000000 -0.497488 -0.623676
    endloop
  endfacet
  facet normal 0.468140 0.826439 0.312801
    outer loop
      vertex -0.737599 -1.000000 -0.305523
      vertex -0.564534 -1.000000 -0.564534
      vertex -0.650000 -0.919239 -0.650000
    endloop
  endfacet
  facet normal 0.468140 0.826439 0.312801
    outer loop
      vertex -0.737599 -1.000000 -0.305523
      vertex -0.650000 -0.919239 -0.650000
      vertex -0.849266 -0.919239 -0.351777
    endloop
  endfacet
  facet normal 0.312801 -0.826439 0.468140
    outer loop
      vertex -0.564534 1.000000 -0.564534
      vertex -0.650000 0.919239 -0.650000
      vertex -0.351777 0.919239 -0.849266
    endloop
  endfacet
  facet normal 0.312801 -0.826439 0.468140
    outer loop
      vertex -0.564534 1.000000 -0.564534
      vertex -0.351777 0.919239 -0.849266
      vertex -0.305523 1.000000 -0.737599
    endloop
  endfacet
  facet normal 0.464677 -0.548124 0.695439
    outer loop
      vertex -0.849266 0.497488 -0.849266
      vertex -0.623676 0.497488 -1.000000
      vertex -0.414214 0.675063 -1.000000
    endloop
  endfacet
  facet normal 0.464677 -0.548124 0.695439
    outer loop
      vertex -0.849266 0.497488 -0.849266
      vertex -0.414214 0.675063 -1.000000
      vertex -0.351777 0.919239 -0.849266
    endloop
  endfacet
  facet normal 0.464677 -0.548124 0.695439
    outer loop
      vertex -0.849266 0.497488 -0.849266
      vertex -0.351777 0.919239 -0.849266
      vertex -0.650000 0.919239 -0.650000
    endloop
  endfacet
  facet normal 0.545290 -0.191480 0.816084
    outer loop
      vertex -0.919239 0.000000 -0.919239
      vertex -0.798371 0.000000 -1.000000
      vertex -0.623676 0.497488 -1.000000
    endloop
  endfacet
  facet normal 0.545290 -0.191480 0.816084
    outer loop
      vertex -0.919239 0.000000 -0.919239
      vertex -0.623676 0.497488 -1.000000
      vertex -0.849266 0.497488 -0.849266
    endloop
  endfacet
  facet normal 0.545290 0.191480 0.816084
    outer loop
      vertex -0.849266 -0.497488 -0.849266
      vertex -0.623676 -0.497488 -1.000000
      vertex -0.798371 0.000000 -1.000000
    endloop
  endfacet
  facet normal 0.545290 0.191480 0.816084
    outer loop
      vertex -0.849266 -0.497488 -0.849266
      vertex -0.798371 0.000000 -1.000000
      vertex -0.919239 0.000000 -0.919239
    endloop
  endfacet
  facet normal 0.464677 0.548124 0.695439
    outer loop
      vertex -0.650000 -0.919239 -0.650000
      vertex -0.351777 -0.919239 -0.849266
      vertex -0.414214 -0.675063 -1.000000
    endloop
  endfacet
  facet normal 0.464677 0.548124 0.695439
    outer loop
      vertex -0.650000 -0.919239 -0.650000
      vertex -0.414214 -0.675063 -1.000000
      vertex -0.623676 -0.497488 -1.000000
    endloop
  endfacet
  facet normal 0.464677 0.548124 0.695439
    outer loop
      vertex -0.650000 -0.919239 -0.650000
      vertex -0.623676 -0.497488 -1.000000
      vertex -0.849266 -0.497488 -0.849266
    endloop
  endfacet
  facet normal 0.312801 0.826439 0.468140
    outer loop
      vertex -0.564534 -1.000000 -0.564534
      vertex -0.305523 -1.000000 -0.737599
      vertex -0.351777 -0.919239 -0.849266
    endloop
  endfacet
  facet normal 0.312801 0.826439 0.468140
    outer loop
      vertex -0.564534 -1.000000 -0.564534
      vertex -0.351777 -0.919239 -0.849266
      vertex -0.650000 -0.919239 -0.650000
    endloop
  endfacet
  facet normal 0.109841 -0.826439 0.552209
    outer loop
      vertex -0.305523 1.000000 -0.737599
      vertex -0.351777 0.919239 -0.849266
      vertex -0.000000 0.919239 -0.919239
    endloop
  endfacet
  facet normal 0.109841 -0.826439 0.552209
    outer loop
      vertex -0.305523 1.000000 -0.737599
      vertex -0.000000 0.919239 -0.919239
      vertex -0.000000 1.000000 -0.798371
    endloop
  endfacet
  facet normal 0.163173 -0.548124 0.820326
    outer loop
      vertex -0.414214 0.675063 -1.000000
      vertex -0.000000 0.798371 -1.000000
      vertex -0.000000 0.919239 -0.919239
    endloop
  endfacet
  facet normal 0.163173 -0.548124 0.820326
    outer loop
      vertex -0.414214 0.675063 -1.000000
      vertex -0.000000 0.919239 -0.919239
      vertex -0.351777 0.919239 -0.849266
    endloop
  endfacet
  facet normal 0.163173 0.548124 0.820326
    outer loop
      vertex -0.414214 -0.675063 -1.000000
      vertex -0.351777 -0.919239 -0.849266
      vertex -0.000000 -0.919239 -0.919239
    endloop
  endfacet
  facet normal 0.163173 0.548124 0.820326
    outer loop
      vertex -0.414214 -0.675063 -1.000000
      vertex -0.000000 -0.919239 -0.919239
      vertex -0.000000 -0.798371 -1.000000
    endloop
  endfacet
  facet normal 0.109841 0.826439 0.552209
    outer loop
      vertex -0.305523 -1.000000 -0.737599
      vertex -0.000000 -1.000000 -0.798371
      vertex -0.000000 -0.919239 -0.919239
    endloop
  endfacet
  facet normal 0.109841 0.826439 0.552209
    outer loop
      vertex -0.305523 -1.000000 -0.737599
      vertex -0.000000 -0.919239 -0.919239
      vertex -0.351777 -0.919239 -0.849266
    endloop
  endfacet
  facet normal -0.109841 -0.826439 0.552209
    outer loop
      vertex -0.000000 1.000000 -0.798371
      vertex -0.000000 0.919239 -0.919239
      vertex 0.351777 0.919239 -0.849266
    endloop
  endfacet
  facet normal -0.109841 -0.826439 0.552209
    outer loop
      vertex -0.000000 1.000000 -0.798371
      vertex 0.351777 0.919239 -0.849266
      vertex 0.305523 1.000000 -0.737599
    endloop
  endfacet
  facet normal -0.163173 -0.548124 0.820326
    outer loop
      vertex -0.000000 0.798371 -1.000000
      vertex 0.414214 0.675063 -1.000000
      vertex 0.351777 0.919239 -0.849266
    endloop
  endfacet
  facet normal -0.163173 -0.548124 0.820326
    outer loop
      vertex -0.000000 0.798371 -1.000000
      vertex 0.351777 0.919239 -0.849266
      vertex -0.000000 0.919239 -0.919239
    endloop
  endfacet
  facet normal -0.163173 0.548124 0.820326
    outer loop
      vertex -0.000000 -0.798371 -1.000000
      vertex -0.000000 -0.919239 -0.919239
      vertex 0.351777 -0.919239 -0.849266
    endloop
  endfacet
  facet normal -0.163173 0.548124 0.820326
    outer loop
      vertex -0.000000 -0.798371 -1.000000
      vertex 0.351777 -0.919239 -0.849266
      vertex 0.414214 -0.675063 -1.000000
    endloop
  endfacet
  facet normal -0.109841 0.826439 0.552209
    outer loop
      vertex -0.000000 -1.000000 -0.798371
      vertex 0.305523 -1.000000 -0.737599
      vertex 0.351777 -0.919239 -0.849266
    endloop
  endfacet
  facet normal -0.109841 0.826439 0.552209
    outer loop
      vertex -0.000000 -1.000000 -0.798371
      vertex 0.351777 -0.919239 -0.849266
      vertex -0.000000 -0.919239 -0.919239
    endloop
  endfacet
  facet normal -0.312801 -0.826439 0.468140
    outer loop
      vertex 0.305523 1.000000 -0.737599
      vertex 0.351777 0.919239 -0.849266
      vertex 0.650000 0.919239 -0.650000
    endloop
  endfacet
  facet normal -0.312801 -0.826439 0.468140
    outer loop
      vertex 0.305523 1.000000 -0.737599
      vertex 0.650000 0.919239 -0.650000
      vertex 0.564534 1.000000 -0.564534
    endloop
  endfacet
  facet normal -0.464677 -0.548124 0.695439
    outer loop
      vertex 0.414214 0.675063 -1.000000
      vertex 0.623676 0.497488 -1.000000
      vertex 0.849266 0.497488 -0.849266
    endloop
  endfacet
  facet normal -0.464677 -0.548124 0.695439
    outer loop
      vertex 0.414214 0.675063 -1.000000
      vertex 0.849266 0.497488 -0.849266
      vertex 0.650000 0.919239 -0.650000
    endloop
  endfacet
  facet normal -0.464677 -0.548124 0.695439
    outer loop
      vertex 0.414214 0.675063 -1.000000
      vertex 0.650000 0.919239 -0.650000
      vertex 0.351777 0.919239 -0.849266
    endloop
  endfacet
  facet normal -0.545290 -0.191480 0.816084
    outer loop
      vertex 0.798371 0.000000 -1.000000
      vertex 0.919239 0.000000 -0.919239
      vertex 0.849266 0.497488 -0.849266
    endloop
  endfacet
  facet normal -0.545290 -0.191480 0.816084
    outer loop
      vertex 0.798371 0.000000 -1.000000
      vertex 0.849266 0.497488 -0.849266
      vertex 0.623676 0.497488 -1.000000
    endloop
  endfacet
  facet normal -0.545290 0.191480 0.816084
    outer loop
      vertex 0.623676 -0.497488 -1.000000
      vertex 0.849266 -0.497488 -0.849266
      vertex 0.919239 0.000000 -0.919239
    endloop
  endfacet
  facet normal -0.545290 0.191480 0.816084
    outer loop
      vertex 0.623676 -0.497488 -1.000000
      vertex 0.919239 0.000000 -0.919239
      vertex 0.798371 0.000000 -1.000000
    endloop
  endfacet
  facet normal -0.464677 0.548124 0.695439
    outer loop
      vertex 0.414214 -0.675063 -1.000000
      vertex 0.351777 -0.919239 -0.849266
      vertex 0.650000 -0.919239 -0.650000
    endloop
  endfacet
  facet normal -0.464677 0.548124 0.695439
    outer loop
      vertex 0.414214 -0.675063 -1.000000
      vertex 0.650000 -0.919239 -0.650000
      vertex 0.849266 -0.497488 -0.849266
    endloop
  endfacet
  facet normal -0.464677 0.548124 0.695439
    outer loop
      vertex 0.414214 -0.675063 -1.000000
      vertex 0.849266 -0.497488 -0.849266
      vertex 0.623676 -0.497488 -1.000000
    endloop
  endfacet
  facet normal -0.312801 0.826439 0.468140
    outer loop
      vertex 0.305523 -1.000000 -0.737599
      vertex 0.564534 -1.000000 -0.564534
      vertex 0.650000 -0.919239 -0.650000
    endloop
  endfacet
  facet normal -0.312801 0.826439 0.468140
    outer loop
      vertex 0.305523 -1.000000 -0.737599
      vertex 0.650000 -0.919239 -0.650000
      vertex 0.351777 -0.919239 -0.849266
    endloop
  endfacet
  facet normal -0.468140 -0.826439 0.312801
    outer loop
      vertex 0.564534 1.000000 -0.564534
      vertex 0.650000 0.919239 -0.650000
      vertex 0.849266 0.919239 -0.351777
    endloop
  endfacet
  facet normal -0.468140 -0.826439 0.312801
    outer loop
      vertex 0.564534 1.000000 -0.564534
      vertex 0.849266 0.919239 -0.351777
      vertex 0.737599 1.000000 -0.305523
    endloop
  endfacet
  facet normal -0.695439 -0.548124 0.464677
    outer loop
      vertex 0.849266 0.497488 -0.849266
      vertex 1.000000 0.497488 -0.623676
      vertex 1.000000 0.675063 -0.414214
    endloop
  endfacet
  facet normal -0.695439 -0.548124 0.464677
    outer loop
      vertex 0.849266 0.497488 -0.849266
      vertex 1.000000 0.675063 -0.414214
      vertex 0.849266 0.919239 -0.351777
    endloop
  endfacet
  facet normal -0.695439 -0.548124 0.464677
    outer loop
      vertex 0.849266 0.497488 -0.849266
      vertex 0.849266 0.919239 -0.351777
      vertex 0.650000 0.919239 -0.650000
    endloop
  endfacet
  facet normal -0.816084 -0.191480 0.545290
    outer loop
      vertex 0.919239 0.000000 -0.919239
      vertex 1.000000 0.000000 -0.798371
      vertex 1.000000 0.497488 -0.623676
    endloop
  endfacet
  facet normal -0.816084 -0.191480 0.545290
    outer loop
      vertex 0.919239 0.000000 -0.919239
      vertex 1.000000 0.497488 -0.623676
      vertex 0.849266 0.497488 -0.849266
    endloop
  endfacet
  facet normal -0.816084 0.191480 0.545290
    outer loop
      vertex 0.849266 -0.497488 -0.849266
      vertex 1.000000 -0.497488 -0.623676
      vertex 1.000000 0.000000 -0.798371
    endloop
  endfacet
  facet normal -0.816084 0.191480 0.545290
    outer loop
      vertex 0.849266 -0.497488 -0.849266
      vertex 1.000000 0.000000 -0.798371
      vertex 0.919239 0.000000 -0.919239
    endloop
  endfacet
  facet normal -0.695439 0.548124 0.464677
    outer loop
      vertex 0.650000 -0.919239 -0.650000
      vertex 0.849266 -0.919239 -0.351777
      vertex 1.000000 -0.675063 -0.414214
    endloop
  endfacet
  facet normal -0.695439 0.548124 0.464677
    outer loop
      vertex 0.650000 -0.919239 -0.650000
      vertex 1.000000 -0.675063 -0.414214
      vertex 1.000000 -0.497488 -0.623676
    endloop
  endfacet
  facet normal -0.695439 0.548124 0.464677
    outer loop
      vertex 0.650000 -0.919239 -0.650000
      vertex 1.000000 -0.497488 -0.623676
      vertex 0.849266 -0.497488 -0.849266
    endloop
  endfacet
  facet normal -0.468140 0.826439 0.312801
    outer loop
      vertex 0.564534 -1.000000 -0.564534
      vertex 0.737599 -1.000000 -0.305523
      vertex 0.849266 -0.919239 -0.351777
    endloop
  endfacet
  facet normal -0.468140 0.826439 0.312801
    outer loop
      vertex 0.564534 -1.000000 -0.564534
      vertex 0.849266 -0.919239 -0.351777
      vertex 0.650000 -0.919239 -0.650000
    endloop
  endfacet
  facet normal -0.552209 -0.826439 0.109841
    outer loop
      vertex 0.737599 1.000000 -0.305523
      vertex 0.849266 0.919239 -0.351777
      vertex 0.919239 0.919239 -0.000000
    endloop
  endfacet
  facet normal -0.552209 -0.826439 0.109841
    outer loop
      vertex 0.737599 1.000000 -0.305523
      vertex 0.919239 0.919239 -0.000000
      vertex 0.798371 1.000000 -0.000000
    endloop
  endfacet
  facet normal -0.820326 -0.548124 0.163173
    outer loop
      vertex 1.000000 0.675063 -0.414214
      vertex 1.000000 0.798371 -0.000000
      vertex 0.919239 0.919239 -0.000000
    endloop
  endfacet
  facet normal -0.820326 -0.548124 0.163173
    outer loop
      vertex 1.000000 0.675063 -0.414214
      vertex 0.919239 0.919239 -0.000000
      vertex 0.849266 0.919239 -0.351777
    endloop
  endfacet
  facet normal -0.820326 0.548124 0.163173
    outer loop
      vertex 1.000000 -0.675063 -0.414214
      vertex 0.849266 -0.919239 -0.351777
      vertex 0.919239 -0.919239 -0.000000
    endloop
  endfacet
  facet normal -0.820326 0.548124 0.163173
    outer loop
      vertex 1.000000 -0.675063 -0.414214
      vertex 0.919239 -0.919239 -0.000000
      vertex 1.000000 -0.798371 -0.000000
    endloop
  endfacet
  facet normal -0.552209 0.826439 0.109841
    outer loop
      vertex 0.737599 -1.000000 -0.305523
      vertex 0.798371 -1.000000 -0.000000
      vertex 0.919239 -0.919239 -0.000000
    endloop
  endfacet
  facet normal -0.552209 0.826439 0.109841
    outer loop
      vertex 0.737599 -1.000000 -0.305523
      vertex 0.919239 -0.919239 -0.000000
      vertex 0.849266 -0.919239 -0.351777
    endloop
  endfacet
endsolid cube_minus_sphere
